<svg width="155" height="176" viewBox="0 0 155 176" fill="none" xmlns="http://www.w3.org/2000/svg">
<path d="M132.291 68.878C135.901 62.9181 137.188 55.5741 135.826 48.7291C135.293 46.0525 134.374 43.4621 133.222 40.992C131.968 38.3064 130.227 35.9565 128.802 33.3805C127.471 30.9768 125.497 28.9015 123.786 26.7707C123.574 26.505 123.316 26.2178 122.977 26.2106C122.731 24.121 122.497 22.1033 122.213 20.0281C121.853 17.3981 121.775 14.7341 121.304 12.1168C120.858 9.63585 120.176 6.98081 118.225 5.39927C118.022 5.23591 117.797 5.08153 117.54 5.04742C117.219 5.00433 116.905 5.15513 116.625 5.31849C114.191 6.73846 112.714 9.33427 111.349 11.8098C110.231 14.0609 109.02 16.8632 107.368 18.7337C107.033 19.1125 103.676 18.1988 103.136 18.1144C101.472 17.8595 99.8023 17.6333 98.1293 17.4376C94.7904 17.0463 91.439 16.7734 88.0805 16.619C81.4687 16.3175 74.8372 16.4808 68.2486 17.1055C68.1398 17.1163 68.0256 17.1253 67.9258 17.0804C67.4156 16.8452 66.8859 14.3033 66.6665 13.7593C66.1439 12.4704 65.5571 11.2102 64.9222 9.97514C63.6629 7.52474 62.2164 5.17308 60.6344 2.92194C60.1974 2.30082 59.7069 1.65815 59.0006 1.38708C58.0803 1.03343 57.0083 1.42298 56.2895 2.09797C55.5689 2.77474 55.132 3.69387 54.7235 4.59504C52.9381 8.54619 51.4221 12.6194 50.1914 16.7788C49.6902 18.4716 49.5118 20.572 48.5915 22.0763C47.7996 23.3706 46.4101 24.1426 45.2704 25.0814C43.6152 26.4458 42.0867 27.9627 40.7062 29.607C38.0539 32.7629 35.9457 36.3838 34.542 40.2685C31.9362 47.4815 31.7703 55.5633 34.0801 62.8786C34.6597 64.715 35.3946 66.512 36.4237 68.1366C37.4047 69.6859 38.639 71.0574 39.9303 72.3535C42.8536 75.2903 46.0302 77.8215 49.8239 79.5072C49.8614 79.5251 49.9006 79.5395 49.9399 79.5574C49.84 79.7316 49.7365 79.9039 49.6438 80.0852C40.4047 98.2343 34.3137 118.001 31.7257 138.225C30.6324 146.772 30.4558 156.367 36.001 162.932C41.7567 169.748 52.2265 171.366 60.6362 171.201C60.3757 172.421 61.5262 173.619 62.7622 173.73C63.9983 173.841 65.179 173.12 66.0048 172.19C65.8942 173.27 66.2616 174.552 67.2712 174.936C68.1969 175.288 69.2385 174.712 69.8734 173.947C70.5084 173.182 70.8901 172.235 71.509 171.455C71.6089 171.33 71.7391 171.197 71.8978 171.208C72.1333 171.224 72.2278 171.513 72.2884 171.741C72.6345 173.024 73.8223 174.031 75.1386 174.157C75.5524 174.197 75.9823 174.154 76.3568 173.97C77.3628 173.48 78.0227 171.987 78.5917 171.066C79.0858 172.355 80.2772 173.348 81.6274 173.595C82.9776 173.843 84.4401 173.337 85.3534 172.305C85.5157 173.613 86.9532 174.498 88.2571 174.356C89.5609 174.215 90.6667 173.276 91.3766 172.166C91.5835 173.493 93.1887 174.385 94.4141 173.857C95.6394 173.33 96.1049 171.545 95.2952 170.479C97.992 170.91 100.965 170.493 103.675 170.195C106.623 169.872 109.475 169.267 112.313 168.409C117.644 166.644 122.654 163.32 125.44 158.417C128.732 152.622 128.534 145.515 127.828 138.877C125.77 119.538 120.21 100.762 114.258 82.2538C114.244 82.2071 114.228 82.1604 114.214 82.1156C121.498 79.6759 128.137 75.7409 132.291 68.878Z" fill="white"/>
<path d="M115.379 33.8984C117.025 33.7592 118.656 33.3538 120.18 32.7142C122.396 31.7835 124.16 31.1056 125.892 29.4265C124.902 29.3948 125.139 28.6722 124.386 27.9178C123.633 26.4091 124.191 27.2537 122.88 26.4091C122.245 26.0004 123.5 25.2955 122.88 24.9004C122.478 24.6434 122.535 24.8879 122.424 24.3196C122.372 24.058 122.391 23.7671 122.376 23.5021C122.349 23.0051 122.333 22.5081 122.254 22.0156C122.112 21.1257 122.262 18.2591 122.127 17.3567C121.829 15.3584 122.015 13.9896 121.374 12.0762C120.81 10.3949 120.481 7.14971 119.115 6.0413C117.749 4.93288 117.186 4.91102 115.583 5.61864C114.976 5.88697 114.366 7.13678 113.845 7.55003C112.338 8.74675 112.971 9.58809 111.586 10.9309C110.903 11.5921 110.669 12.8332 110.08 13.5849C109.531 14.2869 107.913 17.348 107.355 18.0466C107.324 18.0851 107.29 18.1247 107.243 18.1394C107.186 18.1575 107.124 18.1326 107.068 18.1111C106.154 17.7567 103.488 17.3013 102.55 17.3567C100.478 17.4813 99.1717 16.6922 97.2797 17.3567C98.0189 20.562 99.4685 22.6569 101.098 25.5044C102.792 28.4662 105.144 31.1381 108.179 32.627C110.404 33.7173 112.909 34.1079 115.379 33.8984Z" fill="#BCB7B0"/>
<path d="M56.7975 30.4965C55.1757 30.1787 53.5986 29.5981 52.153 28.7963C50.0509 27.6297 47.6181 26.005 46.079 24.1474C47.0665 24.2236 46.7545 24.0609 47.5849 23.393C48.4971 21.9752 47.696 22.5811 49.0908 21.8843C49.7663 21.5471 48.4317 20.7008 49.0908 20.3756C49.5186 20.1639 49.4351 20.4007 49.6072 19.8479C49.6869 19.5935 49.7002 19.3022 49.7438 19.0405C49.8239 18.5493 49.8938 18.057 50.0258 17.576C50.2636 16.7068 51.6517 14.2001 51.8841 13.3178C52.3971 11.3638 52.3611 9.98287 53.2055 8.15058C53.9484 6.54065 55.404 3.22392 56.8821 2.27085C58.3602 1.31778 58.377 0.638444 59.8939 1.51648C60.4674 1.84924 61.6792 4.06635 62.1526 4.53393C63.5208 5.88769 62.8612 6.26906 64.0927 7.75477C64.6999 8.48644 64.6605 9.75737 65.1644 10.5688C65.6339 11.3264 66.6864 13.7642 66.7719 15.0361C66.7985 15.0777 66.7268 15.4604 66.7719 15.4802C66.8269 15.5044 66.7138 15.7231 66.7719 15.7079C67.7194 15.4552 67.9145 16.6037 67.9145 16.6037L76.5841 16.0241C75.5015 19.1298 73.8332 21.0545 71.9044 23.7076C69.8993 26.4673 67.2707 28.8672 64.0927 30.0167C61.7622 30.8582 59.2296 30.9736 56.7975 30.4965Z" fill="#BCB7B0"/>
<path d="M50.702 71.476C51.951 71.6366 53.1449 71.4828 54.2821 71.0112C55.4589 70.7498 56.4997 70.2064 57.4081 69.3812C58.3474 68.643 59.0459 67.7374 59.5035 66.6644C60.14 65.6717 60.4927 64.5764 60.5633 63.377C60.5306 62.5739 60.4962 61.7725 60.4635 60.9695C60.1745 59.3736 59.5052 57.9554 58.4541 56.7166C57.8846 56.2006 57.3134 55.6863 56.744 55.1703C55.4382 54.2681 53.9931 53.7402 52.4086 53.583C51.1596 53.4224 49.9656 53.5761 48.8285 54.0477C47.6517 54.3091 46.6109 54.8525 45.7025 55.6778C44.7632 56.4159 44.0647 57.3215 43.6071 58.3945C42.9705 59.3873 42.6178 60.4825 42.5473 61.682C42.58 62.485 42.6144 63.2864 42.6471 64.0895C42.9361 65.6853 43.6053 67.1035 44.6565 68.3423C45.2277 68.8583 45.7971 69.3726 46.3666 69.8886C47.6724 70.7908 49.1175 71.3205 50.702 71.476Z" fill="#FBC9BC"/>
<path d="M124.175 58.8687C123.907 58.095 123.372 57.4092 122.855 56.7935C122.349 56.1921 121.778 55.623 121.116 55.1976C121.052 55.1563 119.108 54.1223 119.04 54.1007C118.277 53.8566 117.492 53.6304 116.696 53.5604C116.678 53.5586 116.662 53.5586 116.645 53.5586C115.846 53.5909 115.046 53.625 114.247 53.6573C114.235 53.6573 114.222 53.6591 114.21 53.6609C112.626 53.9463 111.221 54.6106 109.992 55.6535C109.066 56.3896 108.378 57.2943 107.928 58.366C107.302 59.357 106.954 60.4502 106.883 61.6494C106.738 63.2884 107.013 64.8537 107.705 66.3455C107.711 66.3599 107.716 66.3725 107.719 66.3868C107.477 65.6203 107.234 64.8537 106.992 64.0854C106.999 64.1123 107.002 64.1393 107.004 64.1662C106.972 63.3566 106.938 62.547 106.906 61.7373C106.899 62.5847 106.938 63.4356 107.001 64.2883C106.967 63.4733 106.935 62.6565 106.901 61.8415C106.901 61.8666 106.899 61.8899 106.894 61.9133C107.068 61.1414 107.243 60.3712 107.42 59.5993C107.418 59.6065 107.416 59.6155 107.414 59.6227C106.851 61.1737 106.708 62.7642 106.988 64.3942C107.279 66.0224 107.953 67.4675 109.009 68.7313C110.043 69.9448 111.304 70.8334 112.792 71.3971C113.937 71.8746 115.111 72.0344 116.313 71.8764C117.551 71.9339 118.733 71.6682 119.859 71.0812C121.302 70.3828 122.486 69.3758 123.408 68.0581C124.321 66.7351 124.858 65.272 125.015 63.6671C125.161 61.9905 124.881 60.3928 124.175 58.8687Z" fill="#FBC9BC"/>
<path d="M107.657 18.2359C106.166 17.586 104.331 17.4747 102.731 17.2485C101.133 17.0223 99.524 16.8662 97.917 16.7279C94.5228 16.4335 91.125 16.2756 87.7237 16.1122C81.0744 15.7927 74.3216 15.7496 67.6831 16.2935C66.8091 16.3653 67.0463 17.7296 67.9203 17.6489C74.6088 17.0295 81.267 16.6651 87.9841 17.0331C91.2641 17.2144 94.5406 17.5896 97.7903 18.0689C99.3902 18.3059 100.985 18.577 102.581 18.8319C104.195 19.0904 105.908 19.5517 107.545 19.4763C108.233 19.444 108.178 18.4621 107.657 18.2359Z" fill="#3D3D3D"/>
<path d="M68.4341 16.8595C67.7456 13.9764 66.44 11.228 65.0274 8.64121C64.2943 7.29663 63.4988 5.99335 62.6516 4.71878C61.9507 3.66322 61.2301 2.28993 60.2366 1.48031C58.1677 -0.207146 55.8187 1.34926 54.7324 3.34548C53.2699 6.03104 52.1462 8.97511 51.1242 11.8528C49.9203 15.2438 49.0749 18.7049 48.0903 22.1588C47.8281 23.0815 49.1979 23.4082 49.3709 22.4532C49.9952 19.0119 51.1474 15.5831 52.305 12.2926C52.8989 10.6033 53.5303 8.92485 54.1974 7.26432C54.8073 5.7492 55.3478 3.88403 56.4625 2.65973C57.0351 2.02963 57.9518 1.51262 58.8133 1.8896C59.4661 2.17683 59.9388 3.02594 60.324 3.59501C61.28 5.01498 62.1647 6.48343 63.0137 7.96982C64.7117 10.9426 66.0262 14.0464 67.223 17.249C67.4763 17.924 68.6017 17.565 68.4341 16.8595Z" fill="#3D3D3D"/>
<path d="M108.105 19.0199C109.107 17.5874 109.876 15.9179 110.709 14.3776C111.421 13.0636 112.109 11.7333 112.863 10.4444C113.595 9.19318 114.406 7.95631 115.464 6.9564C115.901 6.54352 116.514 5.94034 117.098 5.74287C117.906 5.47001 118.569 6.41426 118.987 7.00128C120.677 9.37628 120.834 12.7296 121.173 15.5301C121.596 19.0271 121.865 22.5187 121.867 26.0444C121.867 26.924 123.232 27.0586 123.228 26.1736C123.217 23.0644 123.044 19.9552 122.682 16.8675C122.361 14.1406 121.946 11.2881 120.991 8.7013C120.606 7.65831 120.117 6.64045 119.393 5.78955C118.755 5.03737 117.947 4.20621 116.885 4.53473C114.695 5.21689 113.01 7.72473 111.877 9.57555C111.044 10.9399 110.286 12.3527 109.503 13.7457C108.647 15.2716 107.652 16.8101 106.976 18.4257C106.692 19.1097 107.691 19.6123 108.105 19.0199Z" fill="#3D3D3D"/>
<path d="M48.3936 22.1656C38.6837 27.7127 32.5623 38.9989 31.8953 50.0355C31.535 55.9919 32.4838 62.6447 35.4981 67.8687C37.0071 70.486 39.1741 72.6707 41.3929 74.6849C43.5422 76.6362 45.8983 78.3399 48.4899 79.6431C51.7022 81.2588 55.1909 82.4508 58.66 83.3627C60.3901 83.8169 62.1416 84.2011 63.9038 84.508C65.6945 84.8186 67.4942 85.3877 69.3064 85.5169C70.0412 85.569 70.1268 84.5009 69.4134 84.3806C67.9223 84.131 66.5079 83.5674 65.0221 83.2909C63.4918 83.0073 61.965 82.7398 60.4508 82.3718C57.4436 81.6376 54.4864 80.6861 51.6201 79.5103C46.3442 77.3471 41.6195 73.7658 38.054 69.2797C34.3655 64.6392 33.0707 58.0563 33.0867 52.2328C33.1028 46.5098 34.5029 40.8012 37.2496 35.7819C40.1052 30.5634 44.1843 26.4937 48.9572 23.0452C49.437 22.7006 48.9108 21.8712 48.3936 22.1656Z" fill="#3D3D3D"/>
<path d="M122.137 26.4604C125.017 29.286 127.586 32.4616 129.687 35.9155C131.807 39.3981 133.671 43.1374 134.715 47.1012C136.741 54.7916 135.358 63.272 130.823 69.8172C126.963 75.3875 121.05 78.9384 114.788 81.1787C107.855 83.6579 100.353 84.9001 93.0371 85.4333C83.0578 86.1603 73.025 85.1927 63.2134 83.3329C62.5 83.1983 62.409 84.3167 63.1082 84.4585C72.1832 86.3021 81.4401 87.1117 90.6934 86.7599C98.5038 86.4619 106.443 85.3435 113.909 82.947C120.472 80.8394 126.72 77.4412 131.058 71.9247C135.954 65.699 137.986 57.312 136.694 49.4995C135.924 44.8339 133.974 40.4249 131.613 36.3679C129.287 32.3736 126.485 28.5481 122.857 25.6651C122.385 25.2863 121.692 26.0259 122.137 26.4604Z" fill="#3D3D3D"/>
<path d="M56.6249 50.3669C57.5086 51.818 58.6112 52.9339 60.2343 53.3562C61.7494 53.75 63.328 53.5288 64.832 53.1836C66.5676 52.7865 68.1653 52.0475 69.1505 50.4105C70.0643 48.8907 70.2388 47.1262 70.1548 45.3668C69.9882 41.91 68.4794 38.1952 65.5602 36.3772C62.4919 34.467 59.092 35.7036 57.0628 38.6074C54.7433 41.9302 54.3483 47.0642 56.6773 50.4842C56.9882 50.9416 57.7402 50.4389 57.469 49.943C55.9142 47.0894 55.8666 43.6007 57.2389 40.65C58.5256 37.8852 61.2639 35.6114 64.2704 36.8899C66.9563 38.031 68.5286 41.1041 68.9633 43.9878C69.417 47.0023 68.5793 50.5311 65.557 51.575C64.1974 52.0442 62.614 52.3575 61.1814 52.2235C59.6044 52.076 58.3241 51.1645 57.3896 49.8424C57.085 49.4084 56.3394 49.8994 56.6249 50.3669Z" fill="#3D3D3D"/>
<path d="M59.088 50.4276C58.3963 49.895 59.1638 49.176 59.71 48.962C60.3024 48.7297 60.9933 48.6909 61.6216 48.6585C62.8683 48.5958 64.4756 48.6222 65.5536 49.3726C65.9755 49.6667 66.5565 50.3395 65.8854 50.6267C65.2593 50.8937 64.2538 50.8136 63.5818 50.8321C62.8869 50.8509 62.1899 50.8369 61.4977 50.7844C61.2643 50.7672 59.5054 50.7064 59.448 50.4466C59.2797 49.6744 62.6367 49.6318 63.1584 49.6573C63.3279 49.6663 65.5392 49.999 65.4927 50.1199C65.4304 50.0109 65.3683 49.9003 65.3076 49.7915C65.141 49.861 64.9702 49.9121 64.7917 49.9475C64.3862 50.0544 63.968 50.1205 63.5506 50.1688C62.8654 50.2508 62.1716 50.2746 61.482 50.2404C61.1784 50.2254 60.5048 50.0044 60.2307 50.1007C59.916 49.9703 59.8949 50.1336 60.1641 50.5901C60.3575 50.5403 60.552 50.494 60.7473 50.4542C61.4555 50.3069 62.1806 50.2302 62.9036 50.2069C63.3019 50.1935 63.7028 50.1984 64.1011 50.2224C64.3256 50.2337 64.5504 50.2547 64.7726 50.2836C65.1848 50.4266 65.2159 50.2744 64.8656 49.8285C64.9853 49.6569 65.1053 49.4837 65.2266 49.3122C64.7257 49.729 63.7577 49.7611 63.1345 49.7665C62.365 49.7723 61.6262 49.6032 60.9062 49.3388C60.9318 49.8825 60.9555 50.4276 60.9811 50.9713C62.4941 50.5704 63.7058 50.941 65.1863 51.2065C65.8343 51.3232 66.4738 50.4134 65.8389 49.9565C64.3177 48.8622 62.2074 48.8925 60.4565 49.3601C59.5594 49.5984 59.8284 50.7353 60.5314 50.9926C61.5914 51.3793 62.7447 51.5356 63.8695 51.4098C64.7222 51.3139 66.1638 51.1511 66.4933 50.1994C67.2991 47.8658 61.9343 48.5787 60.8935 48.7593C59.9973 48.9147 58.6093 49.0649 58.4747 50.2063C58.3485 51.2691 59.4662 51.6632 60.3054 51.7722C61.5538 51.9343 62.8191 51.9408 64.0649 51.7461C65.027 51.596 66.3426 51.4527 66.8661 50.4969C68.1439 48.1578 63.2648 48.006 62.0705 48.0788C61.0448 48.1425 59.7492 48.2445 58.8526 48.8051C58.0426 49.3119 57.551 50.4363 58.1379 51.3019C58.7341 52.1834 60.1286 52.1839 61.0646 52.2729C62.3202 52.392 63.5821 52.4126 64.8405 52.3091C65.7671 52.2325 66.9746 52.1956 67.5238 51.305C68.0426 50.4608 67.6939 49.3869 67.0883 48.6913C65.506 46.8761 62.314 46.9124 60.1667 47.3286C59.1798 47.5194 57.9799 48 57.7235 49.1029C57.5302 49.9307 57.9745 50.781 58.7533 51.0677C59.1022 51.1977 59.3715 50.6483 59.088 50.4276Z" fill="#3D3D3D"/>
<path d="M96.1608 48.0465C96.3303 49.7322 96.87 51.4567 98.1134 52.6623C99.366 53.8754 101.018 54.3905 102.733 54.4108C104.798 54.4367 107.046 54.3684 108.882 53.3104C110.592 52.3263 111.783 50.5926 112.481 48.7739C113.64 45.7533 113.467 42.1511 111.621 39.4406C109.453 36.2593 105.355 35.1885 101.838 36.6194C97.4852 38.3919 95.225 43.5358 96.135 48.0502C96.2492 48.6207 97.2145 48.641 97.2034 48.0077C97.1408 44.4701 97.9789 40.7515 101.164 38.7224C103.853 37.0108 107.429 37.1881 109.67 39.5606C111.507 41.5048 111.975 44.3999 111.385 46.9497C111.067 48.3289 110.435 49.6749 109.51 50.7514C108.213 52.2635 106.362 52.7011 104.456 52.8304C102.789 52.943 100.981 53.0002 99.5355 52.0217C98.1318 51.0708 97.441 49.4922 97.1684 47.8655C97.0616 47.2082 96.0945 47.3947 96.1608 48.0465Z" fill="#3D3D3D"/>
<path d="M101.147 52.0129C100.946 51.7471 100.185 51.2728 100.286 50.9333C100.389 50.5863 101.783 50.2578 102.127 50.16C103.441 49.789 105.054 49.6599 106.359 50.1397C106.91 50.3427 107.809 51.0237 107.044 51.5737C106.546 51.9317 105.677 51.9963 105.087 52.0812C104.311 52.1919 103.532 52.2214 102.748 52.1734C102.348 52.1495 101.952 52.107 101.556 52.0443C101.444 52.0258 101.331 52.0055 101.219 51.9871C100.893 51.8117 100.791 51.8782 100.915 52.1901C101.151 52.1864 101.72 51.8985 101.941 51.8357C102.26 51.7434 102.581 51.6604 102.905 51.5921C103.688 51.426 104.492 51.33 105.291 51.3374C105.623 51.3393 105.955 51.3577 106.285 51.3873C106.504 51.4076 106.725 51.4334 106.943 51.4666C106.959 51.271 106.974 51.0772 106.991 50.8816C106.922 50.841 106.207 51.2248 106.084 51.2673C105.715 51.3946 105.339 51.4924 104.958 51.5681C104.317 51.6955 103.666 51.7582 103.014 51.7416C102.699 51.7342 102.382 51.7084 102.068 51.6678C101.869 51.6438 101.672 51.6106 101.475 51.57C101.444 52.2122 101.626 52.4134 102.02 52.1698C102.306 52.1901 102.713 51.9981 102.993 51.9446C103.32 51.8819 103.649 51.832 103.981 51.7951C104.335 51.7545 104.693 51.7287 105.05 51.725C105.271 51.7231 105.494 51.7268 105.715 51.7361C106.128 51.821 106.158 51.7656 105.802 51.57C105.791 51.3153 105.78 51.0588 105.769 50.8041C105.675 51.1252 104.103 51.2839 103.854 51.3153C103.113 51.4112 102.389 51.378 101.65 51.2784C101.761 51.904 101.869 52.5278 101.98 53.1534C102.798 52.8618 103.653 52.716 104.519 52.7179C104.411 52.0959 104.3 51.474 104.191 50.8521C103.314 51.3116 102.446 51.4445 101.471 51.2839C101.58 51.9022 101.689 52.5204 101.797 53.1387C102.829 52.4946 103.891 52.2823 105.072 52.0683C106.042 51.8929 105.909 50.5697 105.006 50.4073C103.594 50.1526 102.159 50.6324 100.961 51.3743C100.144 51.88 100.29 53.063 101.287 53.2291C102.584 53.445 103.867 53.2328 105.032 52.6256C105.826 52.2122 105.728 50.7653 104.704 50.7598C103.46 50.7542 102.306 50.9536 101.132 51.3688C100.152 51.7139 100.583 53.122 101.462 53.2438C102.746 53.4229 104.071 53.3804 105.33 53.0501C106.241 52.8101 107.612 52.4097 107.674 51.2396C107.805 48.7648 102.914 49.9367 101.69 50.2836C100.885 50.5125 99.8605 50.9591 99.8089 51.9446C99.7407 53.2771 101.198 53.5078 102.203 53.6019C103.329 53.7071 104.495 53.6333 105.597 53.3767C106.552 53.1534 107.921 52.8526 108.529 51.9981C109.119 51.1695 108.69 50.1212 107.79 49.7632C106.738 49.3443 105.328 49.4495 104.226 49.5436C102.964 49.6506 98.0416 50.4036 99.1141 52.6957C99.5306 53.5871 100.907 53.6739 101.737 53.7809C103.163 53.9636 104.645 53.9138 106.054 53.6332C106.946 53.4542 107.975 53.2254 108.568 52.4724C109.187 51.6881 109.128 50.6103 108.599 49.7983C107.186 47.6335 103.417 48.0321 101.338 48.7482C100.435 49.0601 99.0312 49.5934 98.8174 50.6749C98.5852 51.8542 99.7297 52.0406 100.369 52.6791C100.832 53.135 101.545 52.5444 101.147 52.0129Z" fill="#3D3D3D"/>
<path d="M83.4717 51.0156C84.5561 50.7607 85.5068 49.9816 85.9759 48.9656C86.1596 48.567 86.272 48.1021 86.1204 47.6892C85.9598 47.2476 85.5371 46.9604 85.1126 46.7647C84.0514 46.271 82.8207 46.1615 81.6899 46.4595C81.2636 46.5708 80.8338 46.7539 80.5573 47.0986C80.0757 47.7036 80.2256 48.6155 80.6233 49.2797C81.1744 50.1952 82.1572 50.8361 83.2131 50.9654" fill="#3D3D3D"/>
<path d="M83.5395 51.4078C85.0538 51.1224 86.6983 49.8047 86.7125 48.1209C86.7268 46.3096 84.3225 45.6974 82.8974 45.7297C81.3296 45.7638 79.4711 46.4963 79.7279 48.3919C79.9295 49.8855 81.6863 51.8117 83.3041 51.4886C83.7196 51.406 83.9355 50.767 83.5163 50.5264C82.6245 50.0166 81.6899 49.9609 81.1049 48.97C80.7571 48.3794 80.6625 47.6811 81.2547 47.2269C81.7077 46.8804 82.5371 46.8463 83.0811 46.8661C83.9676 46.9002 85.9884 47.2233 85.5835 48.5356C85.2625 49.575 84.2726 50.3002 83.3005 50.6539C82.8742 50.8082 83.1079 51.4904 83.5395 51.4078Z" fill="#3D3D3D"/>
<path d="M83.0043 51.1384C82.7796 52.4471 82.9045 53.8815 82.9241 55.2063C82.9437 56.558 82.8652 57.9152 82.8527 59.2669C82.8402 60.5595 82.817 61.8538 82.826 63.1463C82.8349 64.5483 82.949 65.9719 82.8652 67.3721C82.8081 68.3307 84.3135 68.2643 84.1566 67.32C83.7053 64.6237 83.7392 61.7227 83.6946 58.9941C83.6732 57.6998 83.6286 56.3947 83.7071 55.104C83.7874 53.7917 83.9853 52.4148 83.8783 51.1043C83.832 50.5748 83.0828 50.6771 83.0043 51.1384Z" fill="#3D3D3D"/>
<path d="M39.1791 47.6982C30.9888 45.6427 22.6416 44.1025 14.1659 44.1743C13.6522 44.1779 13.5559 44.957 14.0892 44.9911C22.4311 45.5171 30.8176 46.2818 38.9508 48.3229C39.3593 48.4252 39.5929 47.8023 39.1791 47.6982Z" fill="#3D3D3D"/>
<path d="M38.3909 53.2308C34.2975 52.633 30.1703 52.3116 26.0376 52.1447C21.9978 51.9831 17.9115 51.9239 13.877 52.2291C13.4454 52.2614 13.4704 53.0046 13.9074 53.001C17.9865 52.9615 22.0513 52.8663 26.1304 53.0136C30.2059 53.1608 34.269 53.5036 38.3285 53.8932C38.7565 53.9345 38.81 53.2936 38.3909 53.2308Z" fill="#3D3D3D"/>
<path d="M37.4581 58.123C33.3987 58.0512 29.2054 58.6526 25.2083 59.3132C23.1715 59.6507 21.1435 60.0439 19.128 60.4962C17.15 60.9396 15.0828 61.3436 13.194 62.0957C12.7338 62.2788 12.9835 62.9987 13.4544 62.9161C15.4217 62.5715 17.3551 61.9431 19.3028 61.4944C21.3165 61.0312 23.3427 60.6273 25.3778 60.279C27.3558 59.9415 29.341 59.6382 31.3332 59.3958C33.379 59.1481 35.4427 59.0296 37.4849 58.7603C37.8345 58.7118 37.8202 58.1302 37.4581 58.123Z" fill="#3D3D3D"/>
<path d="M128.682 49.3798C136.712 48.0388 144.86 47.4787 152.995 47.7731C153.417 47.7893 153.483 47.1341 153.057 47.1107C144.858 46.6422 136.634 47.1771 128.573 48.764C128.183 48.8412 128.288 49.4462 128.682 49.3798Z" fill="#3D3D3D"/>
<path d="M127.494 54.0158C131.95 54.0014 136.398 54.0571 140.843 54.3928C143.035 54.5597 145.224 54.7805 147.403 55.0642C149.638 55.3568 151.86 55.7948 154.099 56.0479C154.505 56.0946 154.678 55.4268 154.263 55.3263C149.938 54.2851 145.341 53.9512 140.914 53.628C136.445 53.3013 131.946 53.1631 127.468 53.3803C127.115 53.3983 127.136 54.0176 127.494 54.0158Z" fill="#3D3D3D"/>
<path d="M126.337 59.1186C128.231 59.6554 130.231 59.8152 132.171 60.1293C134.203 60.4578 136.227 60.8294 138.244 61.2333C140.272 61.639 142.291 62.086 144.301 62.5761C146.274 63.0572 148.241 63.7322 150.244 64.0589C150.762 64.1433 150.894 63.3768 150.442 63.1883C148.564 62.4038 146.479 62.0017 144.506 61.5224C142.573 61.052 140.631 60.6194 138.681 60.2262C136.721 59.8295 134.752 59.483 132.776 59.1743C130.709 58.8511 128.572 58.4239 126.476 58.5065C126.157 58.519 125.959 59.0109 126.337 59.1186Z" fill="#3D3D3D"/>
<path d="M113.768 82.3386C115.928 89.6449 118.423 96.8346 120.432 104.191C122.438 111.537 124.154 118.92 125.381 126.439C125.998 130.216 126.526 134.012 126.945 137.816C127.322 141.234 127.62 144.69 127.431 148.131C127.243 151.546 126.544 155.007 124.878 158.021C123.396 160.705 121.208 163.015 118.671 164.713C111.904 169.244 103.625 169.74 95.7484 170.004C94.9261 170.031 94.7816 171.321 95.6253 171.31C102.803 171.206 110.301 170.533 116.773 167.151C119.497 165.728 122.071 163.844 124.081 161.5C126.262 158.954 127.643 155.883 128.353 152.614C129.1 149.169 129.143 145.595 128.893 142.091C128.624 138.301 128.131 134.506 127.491 130.761C126.153 122.94 124.304 115.178 122.267 107.512C121.134 103.252 119.916 99.0121 118.648 94.7917C117.367 90.53 116.169 86.2395 114.708 82.0353C114.526 81.5075 113.608 81.7947 113.768 82.3386Z" fill="#3D3D3D"/>
<path d="M49.2586 79.8095C45.4221 87.0529 42.2776 94.7003 39.5879 102.445C36.9107 110.151 34.6937 118.063 33.0331 126.055C31.4939 133.46 30.0991 141.191 30.4647 148.787C30.7947 155.659 33.0438 162.373 38.8013 166.512C44.9333 170.919 52.8115 171.515 60.0904 171.889C61.0019 171.935 61.1231 170.489 60.2242 170.476C53.8674 170.39 46.9649 169.681 41.3572 166.415C38.5819 164.8 36.2347 162.518 34.674 159.685C33.0242 156.691 32.2376 153.334 31.9451 149.943C31.6508 146.53 31.8881 143.071 32.2804 139.676C32.721 135.86 33.3007 132.051 33.9838 128.27C35.4107 120.369 37.3102 112.596 39.8215 104.97C42.6254 96.4614 46.1712 88.2898 50.0862 80.2439C50.3198 79.7682 49.5101 79.3337 49.2586 79.8095Z" fill="#3D3D3D"/>
<path d="M106.394 139.267C104.406 144.326 102.906 149.559 100.803 154.58C98.6839 159.642 96.0513 164.39 92.8229 168.819C92.5839 169.147 92.7516 169.614 93.1137 169.758C94.4014 170.266 95.6357 171.445 94.8135 172.914C94.5102 173.456 93.9805 173.779 93.3598 173.682C92.7177 173.582 91.8099 172.88 91.965 172.131C92.0845 171.558 91.1785 171.377 90.9876 171.907C90.556 173.111 89.5732 174.187 88.1998 174.109C86.9602 174.041 85.676 172.738 85.742 171.447C85.7759 170.769 84.7504 170.666 84.6951 171.347C84.5791 172.765 83.0149 173.571 81.7361 173.163C80.2967 172.704 79.4459 171.194 79.1267 169.801C78.761 168.209 78.8413 166.537 78.8413 164.914C78.8413 163.125 78.8359 161.337 78.827 159.547C78.8092 156.086 78.7575 152.627 78.6825 149.165C78.6058 145.649 78.6112 142.11 78.3758 138.599C78.3258 137.854 77.0719 137.903 77.0648 138.651C77.0291 141.929 77.1986 145.216 77.2664 148.492C77.3341 151.776 77.393 155.059 77.4679 158.342C77.5393 161.52 77.5178 164.71 77.6659 167.884C77.7783 170.284 78.5024 172.993 80.8514 174.113C82.858 175.07 85.7617 173.923 85.742 171.442C85.3925 171.408 85.0447 171.375 84.6951 171.341C84.7343 172.354 84.8663 173.169 85.5405 173.969C86.1469 174.689 87.0209 175.208 87.9626 175.307C89.8479 175.506 91.8206 174.061 91.9668 172.126C91.6333 172.138 91.2998 172.153 90.9662 172.165C91.0162 173.366 91.4514 174.305 92.6446 174.777C93.6755 175.185 94.8099 174.872 95.5251 174.032C96.2189 173.217 96.4544 172.057 96.1494 171.032C95.7802 169.794 94.6779 169.045 93.5435 168.586C93.6398 168.898 93.7379 169.212 93.8342 169.524C97.0715 165.162 99.4954 160.199 101.607 155.206C103.749 150.138 105.729 144.866 107.16 139.545C107.295 139.048 106.591 138.768 106.394 139.267Z" fill="#3D3D3D"/>
<path d="M50.9617 136.848C51.2917 139.748 51.7947 142.523 52.6758 145.309C53.5355 148.023 54.586 150.671 55.7168 153.281C58.0373 158.638 60.6521 163.86 62.7603 169.309C62.9921 169.052 63.2258 168.797 63.4577 168.54C60.9196 167.612 58.7222 170.569 60.2739 172.802C60.9909 173.836 62.2323 174.421 63.4791 174.292C64.9184 174.141 66.0492 173.145 66.7859 171.949C66.422 171.757 66.0599 171.567 65.6961 171.375C65.0005 173.242 66.0938 176.021 68.4072 175.755C70.6634 175.497 71.0719 172.757 72.7413 171.644C72.3614 171.445 71.9833 171.246 71.6034 171.046C71.3804 173.016 72.9286 174.908 74.9334 174.922C77.063 174.938 78.283 173.175 79.2122 171.495C79.7009 170.614 78.431 169.693 77.9191 170.583C77.3644 171.547 76.7348 172.856 75.6022 173.238C74.2806 173.683 72.909 172.554 72.9821 171.177C73.0142 170.553 72.3311 170.212 71.8442 170.58C70.6973 171.448 70.189 172.915 69.1545 173.89C67.7116 175.249 66.3703 173.289 66.8572 171.808C67.1123 171.03 66.0385 170.662 65.6943 171.375C64.988 172.838 62.9743 173.642 61.6776 172.439C61.1354 171.937 60.834 171.154 61.1889 170.458C61.51 169.826 62.3661 169.321 63.0688 169.594C63.5558 169.783 63.9285 169.264 63.7662 168.826C61.7811 163.442 59.1824 158.317 56.8994 153.059C54.6484 147.876 52.5277 142.342 51.7929 136.701C51.7251 136.156 50.8993 136.306 50.9617 136.848Z" fill="#3D3D3D"/>
<path d="M59.6926 13.9371C60.1171 15.5492 60.3151 17.233 60.7984 18.8289C61.0446 19.6422 62.3448 19.4501 62.1237 18.5938C61.7009 16.962 60.9893 15.4092 60.5059 13.7935C60.3561 13.2927 59.5535 13.4129 59.6926 13.9371Z" fill="#3D3D3D"/>
<path d="M113.918 17.6919C113.59 18.8174 113.033 19.8784 112.733 21.0039C112.528 21.7741 113.622 22.2139 113.907 21.4402C114.31 20.3505 114.426 19.1118 114.704 17.9827C114.831 17.4675 114.073 17.1641 113.918 17.6919Z" fill="#3D3D3D"/>
<path d="M122.488 88.9764C122.261 87.2132 120.29 86.8991 120.267 85.3702C120.258 84.7267 120.759 84.114 120.72 83.3965C120.705 83.1406 119.683 80.5777 119.758 80.5479C104.814 86.5638 87.587 88.269 72.7881 85.6953C68.2842 85.6953 65.067 84.4084 61.2065 83.765C60.1834 80.6492 58.3597 78.0937 54.4977 77.9483C52.8469 77.8996 51.2091 78.4599 49.5673 78.279C47.1664 78.0139 45.2346 76.2365 42.9051 75.6132C39.823 74.7887 36.5316 76.1199 34.01 77.9965C31.4884 79.8749 29.4505 82.2957 26.9269 84.1703C21.1181 88.4896 12.9199 89.7397 5.72856 89.2251C6.62248 89.2894 7.20505 92.6804 7.38389 93.2976C8.07836 95.6831 9.02545 98.0012 10.2029 100.207C11.5186 102.672 13.2187 105.078 15.5503 106.759C22.3192 111.638 31.2537 108.421 36.8647 103.668C38.9645 101.889 40.9412 99.9767 42.7784 97.9458C42.8977 98.0712 43.0336 98.1819 43.2028 98.2593C47.6021 100.235 52.6464 101.074 57.3765 102.022C72.4286 105.04 88.0929 105.191 103.179 102.424C110.333 101.112 118.088 98.6183 121.568 92.4874C122.183 91.4106 122.645 90.1955 122.488 88.9764Z" fill="#1E9FFC"/>
<path d="M39.8794 79.9886C40.0607 79.957 40.2235 79.8825 40.368 79.7651C40.516 79.6613 40.6289 79.5312 40.7048 79.3747C40.8083 79.2308 40.8683 79.0718 40.885 78.8939C40.8855 78.7749 40.884 78.6558 40.8825 78.5367C40.8474 78.2993 40.7514 78.0845 40.5985 77.8964C40.5134 77.8164 40.4284 77.7364 40.3453 77.6584C40.1506 77.5167 39.9317 77.4316 39.6909 77.3976C39.4999 77.3674 39.3173 77.3835 39.1389 77.4459C38.9576 77.4775 38.7947 77.552 38.6503 77.6694C38.5023 77.7733 38.3893 77.9034 38.3134 78.0599C38.21 78.2038 38.15 78.3628 38.1333 78.5407C38.1348 78.6598 38.1343 78.7788 38.1358 78.8978C38.1709 79.1353 38.2648 79.35 38.4198 79.5382C38.5048 79.6182 38.5879 79.6981 38.673 79.7762C38.8677 79.9179 39.0866 80.0029 39.3274 80.0369C39.5202 80.0691 39.7029 80.053 39.8794 79.9886Z" fill="white"/>
<path d="M48.8391 81.839C48.8254 81.7789 48.8076 81.7207 48.7877 81.6643C48.7292 81.5699 48.6708 81.4736 48.6104 81.3792C48.5055 81.2428 48.3754 81.1381 48.2199 81.0689C48.12 81.0133 48.0199 80.9596 47.9199 80.9059C47.6833 80.8126 47.4384 80.7822 47.1851 80.8149C46.9317 80.8495 46.7041 80.9408 46.5044 81.0907C46.3108 81.237 46.1678 81.4216 46.0716 81.6388C45.9913 81.8066 45.9607 81.9801 45.9779 82.1612C45.963 82.3449 45.9963 82.5228 46.0799 82.6949C46.1797 82.9137 46.3289 83.0959 46.5275 83.2416C46.9208 83.529 47.4879 83.6118 47.9417 83.41C47.9925 83.387 48.0434 83.3659 48.0943 83.3428C48.4058 83.1991 48.6625 82.9688 48.7983 82.6571C48.8881 82.4513 48.8895 82.3611 48.8888 82.1672C48.9011 82.0525 48.8852 81.9444 48.8391 81.839Z" fill="white"/>
<path d="M55.3122 80.7132C55.365 80.7996 55.4178 80.8842 55.4706 80.9706C55.5441 81.0386 55.6175 81.1086 55.6889 81.1766C55.7771 81.226 55.8673 81.2754 55.9555 81.3229C56.1031 81.388 56.2582 81.4149 56.4168 81.3998C56.5263 81.4135 56.6309 81.4002 56.7325 81.3579C56.8391 81.3427 56.9366 81.3042 57.021 81.2402C57.1166 81.1996 57.1989 81.1394 57.262 81.0592C57.3797 80.9619 57.4662 80.8423 57.5216 80.6985C57.5323 80.6797 57.5451 80.659 57.5558 80.6402C57.6393 80.4437 57.667 80.2394 57.6369 80.0271C57.6049 79.8147 57.522 79.6254 57.3843 79.457C57.2504 79.2946 57.0829 79.1731 56.8858 79.0927C56.7323 79.0255 56.5753 78.9985 56.4106 79.0134C56.2431 78.9994 56.082 79.0279 55.9272 79.0988C55.7281 79.1816 55.5633 79.3059 55.4331 79.4699C55.3028 79.6359 55.2237 79.8229 55.194 80.0291C55.1658 80.245 55.1961 80.4516 55.2845 80.6526C55.2917 80.674 55.301 80.6935 55.3122 80.7132Z" fill="white"/>
<path d="M47.7669 87.8929C47.7207 87.7913 47.6518 87.7062 47.5583 87.6393C47.447 87.5142 47.3084 87.4226 47.1465 87.3647C47.0376 87.3356 46.9265 87.3084 46.8176 87.2793C46.6996 87.2787 46.5815 87.28 46.4654 87.2795C46.3523 87.3098 46.2391 87.3401 46.1259 87.3704C45.9615 87.4314 45.8239 87.526 45.7151 87.6525C45.5851 87.7589 45.492 87.8917 45.4302 88.0468C45.4235 88.0638 45.4169 88.0808 45.4122 88.0979C45.3844 88.1986 45.3567 88.2974 45.3289 88.3981C45.3007 88.5621 45.3168 88.7202 45.375 88.874C45.391 88.9802 45.4334 89.0778 45.5022 89.1629C45.5729 89.3038 45.6766 89.419 45.8132 89.5106C45.8268 89.5207 45.8405 89.5308 45.8542 89.539C45.9522 89.5926 46.0482 89.6461 46.1462 89.6997C46.3096 89.7711 46.4785 89.8005 46.6532 89.7841C46.7728 89.7982 46.8894 89.7834 46.999 89.7395C47.1177 89.7229 47.2213 89.6807 47.316 89.6113C47.4707 89.5403 47.5967 89.4357 47.698 89.2974C47.7535 89.2035 47.809 89.1116 47.8646 89.0177C47.8945 88.9132 47.9225 88.8068 47.9525 88.7023C47.983 88.5288 47.9653 88.3611 47.9034 88.1994C47.8837 88.0854 47.8395 87.9839 47.7669 87.8929Z" fill="white"/>
<path d="M41.3596 86.2653C41.4356 86.105 41.4659 85.9392 41.4483 85.7676C41.463 85.5916 41.4314 85.4215 41.3494 85.259C41.2835 85.0972 41.1825 84.9629 41.0466 84.8541C40.9313 84.7269 40.7908 84.6333 40.623 84.5732C40.3982 84.4841 40.1632 84.4561 39.922 84.4854C39.878 84.4857 39.834 84.4859 39.7899 84.4881C39.5506 84.5194 39.3352 84.6073 39.1438 84.7498C38.9605 84.8888 38.8239 85.0622 38.734 85.27C38.6353 85.5005 38.6431 85.5583 38.6434 85.7638C38.6291 85.8784 38.6449 85.9903 38.6929 86.0977C38.7067 86.1558 38.7245 86.2141 38.7444 86.2705C38.8385 86.4795 38.9801 86.6518 39.169 86.7895C39.358 86.9252 39.5688 87.0099 39.8037 87.0418C39.8476 87.0454 39.8915 87.049 39.9353 87.0544C40.1803 87.0848 40.4175 87.0534 40.6471 86.9622C40.7473 86.9046 40.8474 86.8488 40.9476 86.7912C41.1311 86.6464 41.2697 86.4731 41.3596 86.2653Z" fill="white"/>
<path d="M32.0707 84.497C32.1728 84.497 32.2728 84.497 32.3748 84.497C32.4718 84.4718 32.5689 84.4448 32.6679 84.4197C32.8079 84.3674 32.9269 84.2874 33.0211 84.1777C33.0973 84.1191 33.1561 84.0465 33.1935 83.9576C33.2524 83.8812 33.2896 83.7962 33.3032 83.7007C33.3426 83.61 33.3541 83.5164 33.3398 83.4199C33.3533 83.2726 33.3246 83.1314 33.2577 82.9945C33.2392 82.9554 33.2207 82.9144 33.2022 82.8753C33.1985 82.8675 33.1949 82.8577 33.1912 82.8499C33.1486 82.7581 33.0938 82.6715 33.0309 82.5885C32.9595 82.5206 32.886 82.4525 32.8145 82.3846C32.7951 82.3704 32.7735 82.3581 32.752 82.3458C32.6657 82.2984 32.5795 82.251 32.4932 82.2036C32.3495 82.1406 32.1985 82.1138 32.0439 82.1271C31.9384 82.1136 31.8359 82.127 31.7363 82.1674C31.5832 82.1942 31.4468 82.2563 31.3251 82.3554C31.2565 82.4238 31.1859 82.4922 31.1153 82.5606C31.0661 82.6432 31.017 82.7258 30.9679 82.8084C30.9027 82.9461 30.8752 83.0909 30.8896 83.2393C30.8759 83.3924 30.9044 83.5374 30.9751 83.6802C30.9807 83.69 30.9862 83.7017 30.9899 83.7115C30.9937 83.7174 30.9954 83.7232 30.9992 83.731C31.052 83.8156 31.1048 83.9001 31.1557 83.9846C31.1575 83.9885 31.1614 83.9925 31.1632 83.9964C31.2566 84.1189 31.3732 84.2116 31.5129 84.2745C31.5658 84.3033 31.6168 84.3321 31.6697 84.361C31.7089 84.3817 31.7501 84.4043 31.7893 84.425C31.8805 84.4476 31.9756 84.4723 32.0707 84.497Z" fill="white"/>
<path d="M34.0216 90.0735C34.0238 90.0678 34.028 90.0641 34.0301 90.0604C34.0302 90.0584 34.0322 90.0585 34.0323 90.0566C34.1432 89.9264 34.2127 89.7812 34.2428 89.6192C34.2868 89.5133 34.3029 89.4045 34.2852 89.2906C34.2995 89.1759 34.2837 89.064 34.2377 88.9586C34.211 88.8693 34.2141 88.8406 34.1862 88.7858C34.1601 88.733 34.1333 88.7013 34.0938 88.6364C34.0457 88.531 33.9749 88.4457 33.8815 88.375C33.7663 88.2478 33.6257 88.1542 33.4579 88.0942C33.345 88.065 33.232 88.0358 33.1191 88.0065C32.9991 88.0059 32.877 88.007 32.757 88.0063C32.6398 88.0365 32.5245 88.0686 32.4074 88.0988C32.3071 88.1564 32.207 88.2122 32.1068 88.2698C32.0258 88.3493 31.9468 88.427 31.8658 88.5065C31.8082 88.6022 31.7525 88.698 31.6949 88.7937C31.6648 88.902 31.6347 89.0103 31.6047 89.1186C31.6043 89.2338 31.6059 89.3509 31.6056 89.4661C31.6374 89.5786 31.6712 89.6893 31.703 89.8019C31.7634 89.8982 31.8218 89.9945 31.8822 90.0908C31.987 90.2291 32.1211 90.334 32.2785 90.4052C32.3739 90.4741 32.4804 90.5165 32.5978 90.5324C32.7102 90.577 32.8277 90.591 32.9483 90.5763C33.0718 90.5906 33.1904 90.5758 33.3042 90.5302C33.4248 90.5136 33.5325 90.4697 33.6292 90.3985C33.7882 90.3219 33.9182 90.2155 34.0216 90.0735Z" fill="white"/>
<path d="M43.0119 92.7057C42.9675 92.608 42.9026 92.5269 42.8129 92.464C42.744 92.3808 42.6603 92.32 42.5597 92.2798C42.4722 92.215 42.3736 92.1768 42.264 92.1631C42.1595 92.1226 42.05 92.1089 41.9394 92.122C41.8259 92.1082 41.7153 92.1232 41.6097 92.1653C41.4971 92.1802 41.3975 92.2206 41.307 92.2883C41.1604 92.3557 41.0385 92.4567 40.9436 92.5875C40.8999 92.6319 40.8561 92.6783 40.8144 92.7228C40.6946 92.8757 40.6222 93.0457 40.5951 93.2347C40.5694 93.3835 40.584 93.528 40.6368 93.6663C40.6635 93.8075 40.7288 93.9347 40.8265 94.0478C40.949 94.1964 41.1009 94.3077 41.2842 94.3799C41.3456 94.3956 41.405 94.4132 41.4664 94.429C41.5715 94.4559 41.6765 94.4829 41.7815 94.5099C41.8935 94.5103 42.0056 94.5088 42.1177 94.5091C42.2248 94.4805 42.3339 94.452 42.441 94.4234C42.535 94.3713 42.6271 94.3172 42.7211 94.265C42.7959 94.1911 42.8706 94.119 42.9454 94.045C42.9988 93.9568 43.0522 93.8667 43.1055 93.7785C43.1333 93.6778 43.1611 93.5771 43.1889 93.4764C43.2172 93.3104 43.2012 93.1505 43.143 92.9967C43.125 92.8885 43.0827 92.7909 43.0119 92.7057Z" fill="white"/>
<path d="M36.0286 96.2824C36.0159 96.2473 36.0031 96.2142 35.9864 96.181C35.9298 96.0886 35.8732 95.9982 35.8167 95.9058C35.7394 95.8319 35.6602 95.7579 35.5829 95.6839C35.5635 95.6678 35.5461 95.6537 35.5267 95.6377C35.5111 95.6256 35.4976 95.6116 35.4821 95.5995C35.416 95.549 35.2552 95.4604 35.1784 95.4287C35.1274 95.4019 35.0699 95.3863 35.0101 95.3821C34.945 95.3566 34.8794 95.3445 34.8115 95.342C34.7718 95.3328 34.7322 95.3217 34.6924 95.3164C34.4873 95.2914 34.2903 95.3166 34.1013 95.3939C33.9613 95.4462 33.8442 95.5263 33.7501 95.6341C33.6406 95.726 33.5584 95.838 33.5074 95.9705C33.4306 96.15 33.4055 96.3372 33.4343 96.5302C33.4352 96.559 33.4401 96.588 33.447 96.6171C33.448 96.6977 33.459 96.7769 33.4921 96.853C33.5471 97.0413 33.5285 97.0022 33.6323 97.1693C33.6737 97.238 33.7077 97.2911 33.7514 97.3523C33.8314 97.4609 33.9317 97.5587 34.0385 97.6453C34.1492 97.7339 34.2891 97.791 34.421 97.8497C34.524 97.8766 34.629 97.9036 34.732 97.9305C34.8421 97.9309 34.9542 97.9293 35.0642 97.9296C35.1713 97.901 35.2784 97.8724 35.3856 97.8438C35.5398 97.7863 35.6692 97.6971 35.7717 97.5781C35.8561 97.5141 35.9192 97.4339 35.9608 97.3376C36.026 97.2536 36.0655 97.1611 36.0815 97.0561C36.1233 96.9559 36.1371 96.8547 36.1211 96.7466C36.1331 96.5877 36.103 96.4311 36.0286 96.2824Z" fill="white"/>
<path d="M25.1506 91.8663C25.2992 91.797 25.4231 91.6961 25.5222 91.5616C25.5756 91.4715 25.631 91.3814 25.6845 91.2894C25.7722 91.0854 25.8002 90.8733 25.7685 90.6533C25.7424 90.3893 25.6174 90.0947 25.4452 89.8867C25.2825 89.6905 25.0098 89.494 24.7584 89.4212C24.5455 89.3383 24.3264 89.3109 24.0993 89.3388C23.8721 89.3686 23.6689 89.4512 23.4877 89.5865C23.4109 89.6603 23.334 89.7362 23.2572 89.812C23.2038 89.9002 23.1504 89.9903 23.0971 90.0785C23.0514 90.1766 23.0235 90.2793 23.0135 90.3845C22.9852 90.5523 23.0011 90.7142 23.0613 90.87C23.0912 91.0305 23.1639 91.1733 23.2751 91.3004C23.2943 91.3242 23.3216 91.3425 23.3428 91.3644C23.3581 91.3822 23.3735 91.3982 23.3848 91.4178C23.3791 91.408 23.3715 91.3981 23.3659 91.3864C23.3679 91.3884 23.3698 91.3903 23.3737 91.3924C23.3851 91.4082 23.3946 91.422 23.406 91.4378C23.4626 91.5301 23.5294 91.6152 23.6168 91.6857C23.7242 91.8068 23.859 91.8945 24.0169 91.9522C24.1239 91.9793 24.2309 92.0083 24.3359 92.0353C24.5109 92.063 24.6815 92.0483 24.8437 91.991C24.9563 91.9761 25.0599 91.9358 25.1506 91.8663ZM23.3583 91.3765C23.3564 91.3745 23.3545 91.3725 23.3546 91.3687C23.3565 91.3726 23.3604 91.3746 23.3622 91.3785C23.3583 91.3765 23.3583 91.3765 23.3583 91.3765Z" fill="white"/>
<path d="M24.771 97.9612C24.7879 97.9907 24.7988 98.0199 24.8197 98.0475C24.8905 98.1865 24.9942 98.3037 25.1288 98.3932C25.2571 98.494 25.4008 98.557 25.5598 98.586C25.7178 98.64 25.8793 98.6538 26.0484 98.6256C26.1556 98.597 26.2627 98.5684 26.3697 98.5417C26.5689 98.459 26.7357 98.3328 26.868 98.1669C26.9214 98.0787 26.9727 97.9904 27.026 97.9022C27.1115 97.7038 27.1373 97.4975 27.1073 97.2852C27.1065 97.2544 27.1036 97.2236 27.0967 97.1946C27.0731 97.0766 27.0457 96.9565 26.9958 96.8471C26.8959 96.6284 26.8473 96.592 26.6985 96.452C26.5497 96.312 26.4743 96.2439 26.2515 96.1568C26.0602 96.0824 25.7602 96.0251 25.5562 96.0769C25.3896 96.0917 25.2395 96.1456 25.106 96.2385C24.9634 96.3041 24.8457 96.4014 24.7509 96.5284C24.6996 96.6148 24.6484 96.7012 24.5971 96.7875C24.5276 96.9327 24.502 97.0815 24.5161 97.2375C24.5021 97.3445 24.5162 97.4468 24.5605 97.5463C24.5908 97.6991 24.6596 97.838 24.767 97.9592C24.7691 97.9573 24.771 97.9593 24.771 97.9612Z" fill="white"/>
<path d="M35.5163 102.124C35.4991 102.101 35.4839 102.079 35.4668 102.055C35.4593 102.044 35.4517 102.032 35.4421 102.022C35.3355 101.876 35.2203 101.802 35.0713 101.72C34.9856 101.657 34.889 101.619 34.7835 101.605C34.7301 101.588 34.6786 101.575 34.623 101.565C34.6151 101.563 34.6051 101.562 34.5971 101.56C34.4838 101.542 34.3632 101.555 34.2492 101.554C34.0501 101.582 33.8693 101.653 33.7108 101.772C33.5583 101.889 33.4449 102.033 33.3684 102.205C33.3598 102.22 33.3553 102.235 33.3507 102.25C33.2737 102.487 33.2264 102.627 33.2629 102.88C33.2897 103.071 33.3402 103.165 33.4228 103.311C33.5097 103.5 33.6378 103.658 33.8091 103.784C33.8993 103.833 33.9914 103.885 34.0816 103.934C34.2866 104.015 34.4977 104.042 34.7168 104.014C34.8855 103.997 35.0356 103.943 35.1711 103.853C35.3157 103.785 35.4334 103.688 35.5262 103.561C35.6288 103.44 35.6939 103.304 35.7236 103.153C35.7792 103.004 35.793 102.851 35.763 102.69C35.7369 102.48 35.652 102.293 35.5163 102.124Z" fill="white"/>
<path d="M27.0163 103.637C26.9313 103.557 26.8463 103.477 26.7593 103.395C26.5626 103.253 26.3419 103.164 26.097 103.132C25.9041 103.099 25.7195 103.115 25.541 103.18C25.3577 103.211 25.1928 103.288 25.0483 103.405C24.8983 103.511 24.7853 103.641 24.7093 103.799C24.6059 103.943 24.5437 104.106 24.527 104.284C24.5285 104.405 24.528 104.524 24.5294 104.645C24.5644 104.886 24.6603 105.101 24.8171 105.293C24.9022 105.373 24.9872 105.453 25.0741 105.535C25.2709 105.677 25.4916 105.766 25.7365 105.798C25.9293 105.83 26.114 105.814 26.2925 105.75C26.4758 105.718 26.6407 105.642 26.7852 105.524C26.9352 105.419 27.0481 105.289 27.1241 105.13C27.2276 104.986 27.2897 104.824 27.3065 104.646C27.305 104.525 27.3055 104.406 27.304 104.285C27.2691 104.043 27.1732 103.829 27.0163 103.637Z" fill="white"/>
<path d="M18.8578 100.855C19.2351 100.08 18.663 98.9602 17.7419 98.8737C17.6247 98.852 17.505 98.8437 17.3821 98.8659C17.2592 98.8882 17.1459 98.9223 17.0381 98.9682C17.0422 98.9664 17.0463 98.9627 17.0504 98.9609C17.0422 98.9645 17.036 98.97 17.028 98.9716C16.9689 98.9982 16.9118 99.0287 16.8544 99.0649C16.836 99.0757 16.8175 99.0885 16.799 99.1012C16.7867 99.1103 16.7724 99.1175 16.76 99.1266C16.7682 99.1212 16.7764 99.1176 16.7866 99.1123C16.5874 99.2487 16.4205 99.4306 16.3361 99.652C16.2894 99.775 16.2563 99.912 16.2354 100.042C16.1773 100.414 16.2601 100.874 16.5475 101.157C16.6949 101.336 16.876 101.467 17.0947 101.556C17.3194 101.645 17.5545 101.673 17.7957 101.644C18.2823 101.578 18.654 101.273 18.8578 100.855Z" fill="white"/>
<path d="M16.6998 93.7647C16.8267 93.902 16.9622 94.0242 17.11 94.1372C17.2099 94.1928 17.3099 94.2484 17.4118 94.3041C17.5791 94.3776 17.7541 94.4072 17.9347 94.3929C18.2268 94.3924 18.5418 94.3159 18.7689 94.1287C18.9465 93.9837 19.0852 93.8066 19.1849 93.603C19.3237 93.3164 19.3183 92.8766 19.177 92.591C19.1101 92.4541 19.0273 92.3147 18.9337 92.196C18.762 91.9745 18.5364 91.8566 18.289 91.7321C18.2143 91.6948 18.1784 91.6934 18.0714 91.6644C18.0041 91.6465 17.9367 91.6286 17.8693 91.6127C17.7493 91.612 17.6272 91.6131 17.5072 91.6125C17.4571 91.6144 17.4088 91.6203 17.3605 91.63C16.921 91.7171 16.5542 91.9471 16.3767 92.357C16.2911 92.5572 16.2654 92.7636 16.2953 92.9778C16.3239 93.1747 16.4013 93.3523 16.5212 93.5142C16.572 93.6006 16.6287 93.6872 16.6998 93.7647Z" fill="white"/>
<path d="M10.1236 93.3352C10.2356 93.3356 10.3497 93.3341 10.4617 93.3345C10.5708 93.306 10.6799 93.2775 10.7871 93.2489C10.8811 93.1948 10.9751 93.1427 11.0692 93.0886C11.2048 92.9939 11.3053 92.8768 11.3747 92.7335C11.4419 92.6477 11.4815 92.5532 11.4975 92.4482C11.5413 92.3481 11.5532 92.243 11.5393 92.135C11.5535 92.0242 11.5374 91.918 11.4933 91.8165C11.4632 91.658 11.3906 91.5151 11.2792 91.39C11.2311 91.3402 11.1829 91.2903 11.1328 91.2405C10.9439 91.0491 10.8127 90.9213 10.5544 90.8213C10.5169 90.8065 10.4774 90.7935 10.4398 90.7805C10.2765 90.7091 10.1075 90.6797 9.93091 90.6942C9.75138 90.6797 9.57819 90.7097 9.41132 90.784C9.31319 90.8398 9.21505 90.8957 9.11691 90.9515C8.97515 91.0498 8.86842 91.1744 8.79679 91.3234C8.72739 91.4129 8.68361 91.513 8.6695 91.6219C8.60942 91.7828 8.59515 91.9493 8.62669 92.1213C8.69026 92.4519 8.85304 92.7518 9.1393 92.9603C9.1724 92.9846 9.2035 93.0088 9.23667 93.0312C9.46479 93.1895 9.63474 93.2458 9.91086 93.2984C9.98243 93.3107 10.052 93.3229 10.1236 93.3352Z" fill="white"/>
<path d="M11.9011 96.5507C11.8199 96.4746 11.7407 96.3987 11.6595 96.3227C11.4745 96.189 11.2655 96.1063 11.0346 96.0746C10.8537 96.0447 10.679 96.0612 10.5087 96.12C10.3355 96.15 10.1808 96.221 10.0445 96.3329C9.90279 96.4312 9.79606 96.5558 9.72442 96.7048C9.62725 96.8413 9.56946 96.9946 9.55311 97.1629C9.55285 97.2762 9.55459 97.3895 9.55432 97.5027C9.58783 97.7286 9.67815 97.9336 9.82542 98.1138C9.90659 98.1898 9.98576 98.2657 10.0669 98.3417C10.252 98.4754 10.4609 98.5582 10.6918 98.5899C10.8728 98.6197 11.0474 98.6052 11.2177 98.5444C11.3909 98.5145 11.5457 98.4435 11.6819 98.3315C11.8237 98.2332 11.9304 98.1086 12.0021 97.9597C12.0992 97.8232 12.157 97.6699 12.1734 97.5015C12.1736 97.3883 12.1719 97.275 12.1722 97.1617C12.1366 96.9358 12.0463 96.7308 11.9011 96.5507Z" fill="white"/>
<path d="M20.7023 106.39C20.6664 106.333 20.6305 106.276 20.5967 106.219C20.493 106.05 20.4643 106.015 20.278 105.862C20.1898 105.814 20.1036 105.765 20.0153 105.718C19.8697 105.653 19.7186 105.628 19.5621 105.641C19.4545 105.627 19.352 105.641 19.2524 105.681C19.0974 105.708 18.9589 105.772 18.8371 105.871C18.7919 105.902 18.7525 105.939 18.7188 105.984C18.6774 106.02 18.6379 106.061 18.6003 106.102C18.5898 106.115 18.5793 106.13 18.5687 106.145C18.5476 106.173 18.5265 106.203 18.5054 106.231C18.3667 106.408 18.2812 106.608 18.2488 106.83C18.2181 107.061 18.2517 107.283 18.3457 107.498C18.5285 107.904 18.9296 108.197 19.3876 108.255C19.8555 108.315 20.3288 108.125 20.6125 107.765C20.7512 107.588 20.8368 107.388 20.8691 107.166C20.8998 106.935 20.8662 106.713 20.7722 106.499C20.7476 106.463 20.7249 106.428 20.7023 106.39Z" fill="white"/>
<path d="M57.3422 87.5878C57.3419 87.4879 57.3417 87.3881 57.3415 87.2883C57.3109 87.0894 57.2337 86.9099 57.1036 86.7514C57.0402 86.6799 56.9707 86.6139 56.8949 86.5554C56.8929 86.5553 56.893 86.5534 56.891 86.5534C56.8047 86.506 56.7185 86.4586 56.6342 86.4112C56.4905 86.3482 56.3414 86.3234 56.1888 86.3369C56.0833 86.3233 55.9808 86.3367 55.8832 86.3772C55.7321 86.4041 55.5957 86.4662 55.474 86.5633C55.4513 86.5817 55.4286 86.6019 55.4059 86.6203C55.2825 86.7078 55.1884 86.8156 55.1255 86.9457C55.039 87.0653 54.9899 87.1997 54.9744 87.347C54.9486 87.4996 54.963 87.6479 55.0177 87.7901C55.0462 87.9352 55.1113 88.0662 55.213 88.1833C55.405 88.3979 55.6704 88.5749 55.9736 88.5997C56.0776 88.5998 56.1816 88.5999 56.2857 88.6C56.4928 88.5713 56.6797 88.4977 56.8444 88.3734C56.8671 88.355 56.8899 88.3348 56.9126 88.3164C57.0359 88.2289 57.13 88.1211 57.1929 87.991C57.2776 87.8695 57.3286 87.7351 57.3422 87.5878Z" fill="white"/>
<path d="M51.1052 92.7551C50.9617 92.5807 50.7825 92.4511 50.5697 92.3644C50.5128 92.3335 50.4514 92.3158 50.3856 92.3114C50.2157 92.2532 50.0422 92.239 49.861 92.2686C49.7963 92.2854 49.7317 92.3021 49.667 92.3189C49.5882 92.339 49.5096 92.3552 49.4364 92.387C49.223 92.475 49.0459 92.6084 48.9052 92.7855C48.8274 92.8843 48.7674 92.9915 48.7231 93.105C48.6772 93.2069 48.6452 93.3132 48.629 93.4259C48.6007 93.6456 48.6306 93.8598 48.721 94.0628C48.8097 94.2581 48.9436 94.4206 49.1188 94.55C49.2357 94.6332 49.3615 94.6936 49.494 94.735C49.5848 94.7692 49.6818 94.7958 49.7853 94.8093C49.9845 94.8341 50.0534 94.8098 50.1977 94.8038C50.2077 94.8041 50.2177 94.8045 50.2277 94.803C50.467 94.7717 50.6804 94.6837 50.8698 94.543C50.8862 94.5302 50.9028 94.5155 50.9193 94.5027C51.0549 94.408 51.1595 94.2871 51.2289 94.1438C51.324 94.0111 51.3795 93.8654 51.3957 93.7009C51.4241 93.3699 51.3482 93.0483 51.1322 92.7811C51.1244 92.775 51.1148 92.765 51.1052 92.7551Z" fill="white"/>
<path d="M53.7309 98.3096C52.1366 98.2496 51.8011 100.623 53.4055 100.684C54.9998 100.744 55.3353 98.37 53.7309 98.3096Z" fill="white"/>
<path d="M59.1789 93.4792C59.1035 93.4072 59.0262 93.3352 58.9508 93.2652C58.7756 93.1377 58.5784 93.0611 58.3614 93.0318C58.1904 93.0043 58.0237 93.0191 57.8656 93.0746C57.7025 93.103 57.5559 93.1704 57.4259 93.275C57.2923 93.3678 57.1919 93.485 57.1225 93.6264C57.0296 93.7553 56.9762 93.8992 56.9602 94.0579C56.9602 94.1654 56.9621 94.273 56.9622 94.3786C56.9941 94.5929 57.0789 94.7842 57.2186 94.9546C57.2939 95.0265 57.3712 95.0985 57.4466 95.1685C57.6219 95.2961 57.8191 95.3726 58.0361 95.4019C58.2071 95.4295 58.3737 95.4146 58.5319 95.3591C58.695 95.3307 58.8416 95.2633 58.9716 95.1588C59.1051 95.0659 59.2056 94.9488 59.2749 94.8074C59.3678 94.6784 59.4212 94.5345 59.4372 94.3758C59.4373 94.2683 59.4352 94.1627 59.4353 94.0551C59.4033 93.8428 59.3185 93.6495 59.1789 93.4792Z" fill="white"/>
<path d="M63.5596 87.9262C62.0492 87.8693 61.7304 90.1187 63.2508 90.1759C64.7613 90.2309 65.08 87.9834 63.5596 87.9262Z" fill="white"/>
<path d="M63.0469 98.8352C62.9724 98.6884 62.8649 98.5672 62.7224 98.4717C62.6264 98.4181 62.5304 98.3646 62.4323 98.3129C62.3081 98.2641 62.1811 98.2363 62.0534 98.2257C61.8606 98.1935 61.756 98.2087 61.6206 98.244C61.6166 98.2438 61.6125 98.2456 61.6085 98.2454L61.6105 98.2455C61.4782 98.252 61.3473 98.2759 61.2211 98.3326C61.0527 98.3953 60.911 98.4917 60.798 98.6238C60.6658 98.734 60.5666 98.8704 60.5045 99.0312C60.4744 99.1395 60.4444 99.2478 60.4142 99.358C60.3833 99.5949 60.4166 99.8246 60.5144 100.043C60.5748 100.14 60.6352 100.238 60.6956 100.334C60.8429 100.513 61.0259 100.646 61.2447 100.735C61.6112 100.885 62.0454 100.882 62.4112 100.733C62.8502 100.552 63.1795 100.147 63.2328 99.6888C63.2476 99.5626 63.2586 99.4287 63.2293 99.3047C63.208 99.1254 63.1478 98.9714 63.0469 98.8352ZM61.9048 98.2412C61.9228 98.2419 61.9408 98.2407 61.9588 98.2413C61.9628 98.2415 61.9647 98.2435 61.9687 98.2436C61.9468 98.2409 61.9248 98.242 61.9048 98.2412Z" fill="white"/>
<path d="M67.2916 94.0244C67.2143 93.9524 67.139 93.8805 67.0617 93.8084C66.9696 93.757 66.8755 93.7054 66.7834 93.654C66.6279 93.5848 66.4669 93.5576 66.3002 93.5724C66.1287 93.5583 65.9656 93.5867 65.8068 93.6594C65.7946 93.6647 65.7803 93.6719 65.7681 93.6772C65.5628 93.7616 65.394 93.8896 65.2575 94.0592C65.123 94.2307 65.0418 94.4215 65.0118 94.6335C65.0117 94.7429 65.0136 94.8505 65.0135 94.9599C65.0453 95.178 65.132 95.3732 65.2735 95.5475C65.3726 95.6779 65.497 95.7767 65.6465 95.8437C65.7831 95.9353 65.9372 95.9872 66.1047 96.0031C66.3357 96.031 66.5588 96.0029 66.7722 95.9149C66.9775 95.8305 67.1464 95.7025 67.2829 95.531C67.2894 95.5178 67.2978 95.5066 67.3043 95.4934C67.3577 95.4052 67.4111 95.3151 67.4644 95.2269C67.536 95.0779 67.5639 94.9235 67.5479 94.7635C67.562 94.6547 67.546 94.5485 67.5018 94.447C67.4737 94.2904 67.4029 94.1495 67.2916 94.0244Z" fill="white"/>
<path d="M69.1955 88.8911C69.224 89.0362 69.2891 89.1673 69.3908 89.2824C69.4079 89.3061 69.427 89.3299 69.4461 89.3555C69.5776 89.5294 69.7801 89.6772 69.9916 89.7466C70.1412 89.8117 70.2942 89.8386 70.4549 89.8235C70.6184 89.8374 70.7756 89.8087 70.9281 89.7415C71.0181 89.6912 71.1061 89.6388 71.196 89.5885C71.3254 89.4993 71.4217 89.3858 71.4889 89.2501C71.5519 89.1699 71.5914 89.0774 71.6051 88.978C71.6607 88.8323 71.6724 88.6811 71.6443 88.5226C71.616 88.4237 71.5858 88.3227 71.5575 88.2237C71.4725 88.0382 71.3463 87.8818 71.1769 87.7583C71.0875 87.6877 70.9661 87.6179 70.8753 87.5857C70.7742 87.5588 70.6731 87.5339 70.5721 87.5071C70.5641 87.5068 70.5541 87.5064 70.5461 87.5061C70.5142 87.503 70.4843 87.5018 70.4524 87.4987C70.3483 87.4986 70.2463 87.4986 70.1423 87.4986C70.0432 87.5255 69.9422 87.5505 69.8432 87.5775C69.7573 87.6261 69.6715 87.6747 69.5856 87.7233C69.4623 87.8089 69.3682 87.9186 69.3052 88.0487C69.2443 88.127 69.207 88.2139 69.1934 88.3094C69.1539 88.402 69.1423 88.4975 69.1545 88.5978C69.1387 88.699 69.153 88.7974 69.1955 88.8911Z" fill="white"/>
<path d="M70.9701 100.682C70.9239 100.58 70.855 100.497 70.7635 100.43C70.6927 100.345 70.6051 100.28 70.5006 100.238C70.4091 100.171 70.3066 100.131 70.1931 100.115C70.0847 100.073 69.9712 100.059 69.8546 100.073C69.7351 100.059 69.6225 100.074 69.5108 100.118C69.3396 100.148 69.1869 100.217 69.0527 100.327C69.0364 100.336 69.02 100.345 69.0036 100.356C68.8306 100.488 68.7025 100.65 68.6171 100.845C68.5455 100.994 68.5176 101.15 68.5335 101.31C68.5193 101.474 68.5494 101.633 68.6257 101.786C68.7144 101.981 68.8483 102.143 69.0235 102.273C69.039 102.285 69.0567 102.295 69.0722 102.307C69.1682 102.361 69.2642 102.414 69.3623 102.466C69.4713 102.495 69.5803 102.522 69.6892 102.551C69.8053 102.552 69.9214 102.55 70.0394 102.551C70.1506 102.521 70.2637 102.492 70.3769 102.462C70.473 102.406 70.5711 102.352 70.6672 102.296C70.7441 102.221 70.823 102.145 70.8999 102.069C70.9553 101.977 71.0108 101.885 71.0664 101.791C71.1402 101.636 71.1683 101.476 71.1525 101.311C71.1668 101.196 71.1509 101.088 71.1049 100.981C71.087 100.87 71.0428 100.771 70.9701 100.682Z" fill="white"/>
<path d="M73.5357 94.9298C73.4584 94.8578 73.3811 94.7838 73.3038 94.7118C73.1246 94.5822 72.9255 94.5037 72.7045 94.4742C72.6608 94.4668 72.6168 94.4652 72.5729 94.4616C72.3399 94.4336 72.1168 94.4617 71.9014 94.5496C71.8073 94.6036 71.7112 94.6576 71.6172 94.7117C71.4421 94.8452 71.3118 95.0092 71.2264 95.2057C71.1547 95.3565 71.1267 95.5148 71.1427 95.6767C71.1284 95.8431 71.1583 96.0036 71.2346 96.1581C71.2969 96.3102 71.3921 96.4386 71.5202 96.5413C71.6277 96.6624 71.7625 96.7501 71.9204 96.8078C72.1333 96.8926 72.3543 96.9202 72.5835 96.8904C72.6275 96.8901 72.6715 96.8918 72.7157 96.8877C72.8904 96.8712 73.0465 96.8157 73.1841 96.7211C73.3328 96.6518 73.4546 96.5508 73.5517 96.4182C73.6051 96.328 73.6585 96.2379 73.7119 96.1477C73.7836 95.9969 73.8114 95.8424 73.7955 95.6806C73.8097 95.5698 73.7937 95.4636 73.7496 95.3602C73.7196 95.1997 73.6469 95.0568 73.5357 94.9298Z" fill="white"/>
<path d="M78.8501 87.8095C78.7426 87.6884 78.6078 87.6008 78.45 87.543C78.2925 87.4737 78.1275 87.4464 77.9588 87.4612C77.7853 87.4469 77.6182 87.4752 77.4574 87.5478C77.3376 87.5933 77.2371 87.6605 77.148 87.7416C77.0595 87.8055 76.9787 87.8792 76.9094 87.9668C76.7812 88.1309 76.7023 88.3122 76.6747 88.5147C76.6467 88.7267 76.677 88.9313 76.7637 89.1266C76.8117 89.232 76.8782 89.3267 76.953 89.4121C76.9568 89.418 76.9587 89.4219 76.9624 89.4278C77.1021 89.5962 77.2735 89.7217 77.4785 89.8043C77.5855 89.8313 77.6924 89.8603 77.7975 89.8873C78.0305 89.9153 78.2536 89.8872 78.469 89.7993C78.5631 89.7453 78.6592 89.6913 78.7532 89.6373C78.9283 89.5037 79.0586 89.3397 79.144 89.1433C79.2157 88.9924 79.2437 88.8341 79.2278 88.6723C79.242 88.5058 79.2121 88.3453 79.1358 88.1908C79.0735 88.0387 78.9783 87.9123 78.8501 87.8095Z" fill="white"/>
<path d="M80.6132 93.3641C78.9629 93.302 78.6163 95.7595 80.2766 95.8221C81.927 95.8823 82.2755 93.4267 80.6132 93.3641Z" fill="white"/>
<path d="M78.4014 101.633C78.3241 101.561 78.2468 101.487 78.1695 101.415C77.9903 101.285 77.7912 101.207 77.5702 101.177C77.3952 101.149 77.2286 101.164 77.0663 101.221C76.9012 101.25 76.7526 101.319 76.6205 101.425C76.4849 101.52 76.3824 101.639 76.3129 101.782C76.218 101.913 76.1645 102.059 76.1484 102.222C76.1482 102.331 76.1502 102.439 76.1501 102.548C76.1819 102.766 76.2685 102.961 76.4101 103.134C76.4874 103.206 76.5647 103.28 76.642 103.352C76.8212 103.481 77.0203 103.56 77.2413 103.589C77.4163 103.617 77.5829 103.602 77.7451 103.545C77.9103 103.517 78.0589 103.447 78.191 103.341C78.3266 103.246 78.4291 103.127 78.4985 102.984C78.5935 102.853 78.647 102.707 78.6631 102.545C78.6633 102.435 78.6613 102.328 78.6614 102.218C78.6296 102.002 78.5429 101.807 78.4014 101.633Z" fill="white"/>
<path d="M84.7716 98.8144C84.6982 98.7445 84.6248 98.6764 84.5514 98.6065C84.3819 98.4849 84.1927 98.4087 83.9816 98.3815C83.8166 98.3542 83.6559 98.3693 83.5039 98.4231C83.3468 98.4498 83.2043 98.5154 83.0804 98.6164C82.951 98.7056 82.8547 98.819 82.7896 98.9548C82.7009 99.0781 82.6476 99.2182 82.6318 99.3712C82.6319 99.4748 82.632 99.5785 82.6342 99.6803C82.6644 99.8869 82.7475 100.072 82.8814 100.237C82.9547 100.307 83.0282 100.375 83.1016 100.445C83.2711 100.566 83.4603 100.642 83.6714 100.67C83.8364 100.697 83.997 100.682 84.1491 100.628C84.3062 100.601 84.4487 100.536 84.5725 100.435C84.7019 100.346 84.7983 100.232 84.8654 100.096C84.9541 99.9712 85.0074 99.8331 85.0231 99.6801C85.023 99.5764 85.0229 99.4727 85.0208 99.3709C84.9865 99.1642 84.9055 98.9788 84.7716 98.8144Z" fill="white"/>
<path d="M86.6225 89.6804C86.5799 89.5885 86.5188 89.5133 86.435 89.4525C86.3352 89.3413 86.2102 89.2579 86.0641 89.2063C86.0384 89.1976 86.0108 89.187 85.9851 89.1784C85.7821 89.0978 85.573 89.0726 85.3558 89.1009C85.1387 89.1292 84.9456 89.2083 84.7727 89.3381C84.6079 89.4644 84.4839 89.6209 84.4028 89.8079C84.3334 89.9512 84.3078 90.1 84.322 90.2541C84.3081 90.411 84.3384 90.5638 84.4109 90.7105C84.4958 90.898 84.624 91.0545 84.7934 91.1779C84.9628 91.3014 85.154 91.3777 85.3651 91.4049C85.5861 91.4324 85.7993 91.4039 86.0025 91.3214C86.0287 91.3147 86.055 91.308 86.0813 91.3013C86.1692 91.2509 86.2571 91.2004 86.345 91.1519C86.4156 91.0835 86.4863 91.0132 86.5569 90.9449C86.6061 90.8603 86.6572 90.7778 86.7064 90.6933C86.7737 90.5537 86.7992 90.4069 86.7849 90.2566C86.7988 90.1535 86.7845 90.0531 86.7421 89.9575C86.728 89.8533 86.6875 89.7615 86.6225 89.6804Z" fill="white"/>
<path d="M90.3224 96.2532C90.3448 96.2445 90.3671 96.2357 90.3895 96.225C90.4897 96.1674 90.5899 96.1116 90.6901 96.054C90.771 95.9764 90.8501 95.8968 90.931 95.8193C90.9886 95.7235 91.0443 95.6277 91.1018 95.5339C91.1779 95.3736 91.2081 95.2096 91.1905 95.0381C91.2049 94.9216 91.1892 94.8077 91.1413 94.6984C91.1236 94.5826 91.0775 94.4791 91.0029 94.388C90.9548 94.2844 90.884 94.1973 90.7906 94.1285C90.6773 94.0014 90.5368 93.9078 90.369 93.8477C90.3454 93.8372 90.3238 93.8249 90.3002 93.8144C90.0696 93.7232 89.8326 93.6931 89.5853 93.726C89.338 93.759 89.1185 93.8486 88.9209 93.9947C88.7335 94.1374 88.5927 94.3164 88.4986 94.5298C88.4204 94.6938 88.39 94.8636 88.4074 95.0389C88.3926 95.2188 88.4262 95.3909 88.5079 95.5591C88.6059 95.772 88.7492 95.9502 88.944 96.0919C89.1388 96.2317 89.3556 96.3186 89.5965 96.3507C89.8476 96.3774 90.0908 96.3463 90.3224 96.2532Z" fill="white"/>
<path d="M91.4382 101.854C91.4221 101.75 91.3797 101.654 91.3128 101.571C91.2703 101.476 91.2052 101.398 91.1196 101.335C91.0526 101.254 90.9708 101.196 90.8723 101.155C90.7395 101.068 90.5934 101.016 90.4299 101C90.4001 100.995 90.3683 100.989 90.3385 100.984C90.1294 100.958 89.9264 100.983 89.7313 101.062C89.5872 101.117 89.4681 101.198 89.3719 101.31C89.2583 101.404 89.1759 101.52 89.1228 101.656C89.0438 101.841 89.0186 102.032 89.0472 102.229C89.05 102.26 89.0548 102.292 89.0576 102.323C89.0878 102.424 89.116 102.525 89.1462 102.628C89.2009 102.715 89.2556 102.803 89.3084 102.889C89.3838 102.959 89.4572 103.029 89.5325 103.101C89.6227 103.151 89.7148 103.202 89.8049 103.252C89.908 103.279 90.009 103.305 90.1121 103.33C90.2221 103.331 90.3302 103.329 90.4403 103.329C90.5454 103.301 90.6504 103.274 90.7575 103.245C90.9098 103.188 91.0371 103.1 91.1395 102.983C91.224 102.919 91.285 102.841 91.3265 102.747C91.3916 102.665 91.4311 102.572 91.445 102.469C91.4867 102.371 91.5006 102.269 91.4845 102.163C91.4966 102.056 91.4824 101.954 91.4382 101.854Z" fill="white"/>
<path d="M96.3356 97.5071C94.985 97.4562 94.6991 99.4688 96.0597 99.5201C97.4123 99.571 97.6961 97.5583 96.3356 97.5071Z" fill="white"/>
<path d="M93.8958 88.1229C93.8185 88.0508 93.7412 87.9769 93.6639 87.9049C93.4847 87.7753 93.2856 87.6968 93.0646 87.6673C92.8896 87.6396 92.723 87.6545 92.5607 87.7117C92.3956 87.74 92.2469 87.8093 92.1149 87.9157C91.9793 88.0104 91.8767 88.1294 91.8073 88.2727C91.7124 88.4035 91.6589 88.5493 91.6427 88.7118C91.6426 88.8213 91.6446 88.9288 91.6445 89.0382C91.6763 89.2564 91.7629 89.4516 91.9045 89.6239C91.9818 89.696 92.0591 89.7699 92.1364 89.8419C92.3156 89.9715 92.5147 90.0501 92.7357 90.0795C92.9107 90.1072 93.0773 90.0924 93.2395 90.0351C93.4047 90.0068 93.5533 89.9375 93.6854 89.8311C93.821 89.7364 93.9235 89.6174 93.9929 89.4741C94.0879 89.3433 94.1414 89.1975 94.1575 89.035C94.1577 88.9256 94.1557 88.818 94.1558 88.7086C94.122 88.4904 94.0353 88.2951 93.8958 88.1229Z" fill="white"/>
<path d="M98.0547 90.8046C96.4324 90.7435 96.0913 93.1591 97.7236 93.2206C99.3459 93.2817 99.687 90.8661 98.0547 90.8046Z" fill="white"/>
<path d="M104.744 86.5388C104.606 86.3723 104.437 86.2489 104.234 86.1663C104.078 86.0971 103.915 86.0699 103.748 86.0847C103.577 86.0706 103.412 86.0989 103.253 86.1716C103.05 86.2561 102.881 86.3822 102.746 86.5519C102.614 86.7216 102.531 86.9123 102.503 87.1224C102.475 87.3421 102.505 87.5544 102.595 87.7594C102.6 87.773 102.606 87.7867 102.611 87.8003C102.666 87.8888 102.721 87.9772 102.775 88.0657C102.851 88.1376 102.926 88.2076 103.002 88.2796C103.094 88.331 103.186 88.3806 103.278 88.432C103.431 88.4993 103.59 88.5264 103.755 88.5114C103.869 88.5253 103.977 88.5102 104.081 88.468C104.191 88.453 104.291 88.4126 104.38 88.3468C104.479 88.3045 104.564 88.2424 104.629 88.1604C104.751 88.0594 104.839 87.9361 104.897 87.7885C104.903 87.7753 104.912 87.7603 104.918 87.7471C105.004 87.5449 105.032 87.3367 105.002 87.1186C104.97 86.9044 104.883 86.711 104.744 86.5388Z" fill="white"/>
<path d="M104.376 95.119C104.346 95.018 104.318 94.9171 104.288 94.8143C104.227 94.668 104.136 94.5455 104.014 94.4469C103.947 94.3656 103.865 94.3069 103.766 94.2667C103.634 94.1792 103.485 94.1275 103.324 94.1118C103.214 94.1115 103.104 94.1112 102.996 94.1129C102.891 94.1416 102.784 94.1683 102.678 94.1969C102.526 94.2546 102.399 94.3419 102.296 94.459C102.177 94.5581 102.088 94.6815 102.031 94.8272C102.024 94.8499 102.015 94.8746 102.008 94.8973C101.922 95.0976 101.897 95.3039 101.926 95.5182C101.958 95.7324 102.043 95.9238 102.183 96.0941C102.258 96.1661 102.336 96.2381 102.411 96.3081C102.586 96.4357 102.783 96.5122 103 96.5415C103.171 96.569 103.338 96.5542 103.496 96.4987C103.659 96.4703 103.806 96.4029 103.936 96.2984C104.107 96.1685 104.233 96.0081 104.318 95.8156C104.404 95.6153 104.43 95.4089 104.4 95.1947C104.389 95.1693 104.383 95.1442 104.376 95.119Z" fill="white"/>
<path d="M103.196 100.27C103.118 100.115 103.003 99.986 102.852 99.8844C102.658 99.7446 102.441 99.6577 102.2 99.6256C101.949 99.595 101.706 99.6262 101.474 99.7211C101.354 99.7704 101.248 99.8355 101.151 99.9124C101.147 99.9161 101.145 99.918 101.141 99.9197C101.059 99.9992 100.978 100.079 100.895 100.158C100.838 100.254 100.78 100.352 100.722 100.449C100.692 100.557 100.662 100.668 100.632 100.778C100.601 100.957 100.617 101.131 100.682 101.298C100.7 101.416 100.746 101.519 100.823 101.614C100.871 101.72 100.941 101.807 101.039 101.878C101.113 101.967 101.205 102.034 101.315 102.078C101.462 102.176 101.628 102.234 101.809 102.25C101.875 102.261 101.961 102.252 102.011 102.252C102.055 102.252 102.147 102.257 102.213 102.25C102.461 102.217 102.68 102.128 102.878 101.982C103.065 101.839 103.206 101.66 103.3 101.447C103.394 101.226 103.425 100.996 103.39 100.761C103.367 100.578 103.303 100.414 103.196 100.27Z" fill="white"/>
<path d="M110.571 97.5634C110.435 97.399 110.266 97.2755 110.065 97.195C109.96 97.1622 109.853 97.1352 109.746 97.1119C109.56 97.0896 109.38 97.1058 109.206 97.1588C109.147 97.1739 109.088 97.1908 109.032 97.2137C108.999 97.2259 108.97 97.2459 108.94 97.2601C108.887 97.2831 108.86 97.2993 108.846 97.3084C108.774 97.3537 108.71 97.407 108.654 97.472C108.536 97.5693 108.449 97.6908 108.394 97.8327C108.313 98.0255 108.285 98.226 108.315 98.4326C108.332 98.6405 108.447 98.8599 108.575 99.024C108.646 99.115 108.729 99.2006 108.828 99.262C108.921 99.3134 109.015 99.365 109.107 99.4164C109.262 99.4856 109.423 99.5128 109.588 99.4979C109.701 99.5118 109.812 99.4967 109.918 99.4547C110.081 99.4262 110.229 99.3589 110.359 99.2524C110.361 99.2506 110.363 99.2507 110.366 99.2488C110.536 99.119 110.665 98.9568 110.748 98.7641C110.833 98.5639 110.861 98.3557 110.829 98.1414C110.795 97.9251 110.709 97.7337 110.571 97.5634Z" fill="white"/>
<path d="M109.275 92.3423C109.448 92.2106 109.576 92.0484 109.661 91.852C109.837 91.444 109.758 90.9899 109.485 90.6398C109.281 90.3768 108.972 90.2174 108.638 90.1664C108.61 90.1615 108.583 90.1585 108.555 90.1556C108.499 90.1477 108.443 90.1398 108.387 90.132C108.279 90.1318 108.169 90.1315 108.061 90.1331C107.895 90.148 107.745 90.2018 107.611 90.2928C107.514 90.3333 107.431 90.3954 107.366 90.4775C107.246 90.5766 107.158 90.6981 107.102 90.8438C107.075 90.9406 107.047 91.0394 107.021 91.1364C107.021 91.24 107.021 91.3456 107.023 91.4494C107.039 91.6093 107.096 91.7535 107.191 91.8818C107.26 92.0188 107.362 92.1321 107.494 92.2215C107.541 92.2502 107.588 92.2807 107.635 92.3094C107.659 92.3237 107.682 92.338 107.706 92.3543C107.885 92.4839 108.086 92.5644 108.309 92.5939C108.432 92.6158 108.552 92.6146 108.669 92.5902C108.892 92.5583 109.093 92.4776 109.275 92.3423Z" fill="white"/>
<path d="M113.034 85.7186C113.009 85.589 112.951 85.4736 112.861 85.3723C112.709 85.1439 112.407 84.9809 112.132 84.9513C112.096 84.9481 112.06 84.9448 112.025 84.9415C111.934 84.942 111.846 84.9425 111.756 84.9429C111.669 84.9665 111.585 84.9883 111.498 85.0119C111.424 85.0533 111.348 85.0965 111.275 85.1379C111.168 85.2126 111.086 85.3055 111.032 85.4186C110.98 85.4857 110.947 85.5613 110.936 85.6453C110.901 85.7247 110.891 85.8088 110.902 85.8936C110.891 85.9815 110.904 86.0646 110.939 86.1465C110.964 86.2722 111.02 86.3857 111.108 86.485C111.129 86.5126 111.152 86.5385 111.173 86.5661C111.294 86.7108 111.438 86.8161 111.615 86.8861C111.769 86.9456 111.809 86.9529 111.921 86.9533C112.013 86.9529 112.103 86.9524 112.195 86.9521C112.284 86.9285 112.371 86.9049 112.46 86.8814C112.535 86.8382 112.611 86.795 112.689 86.7518C112.798 86.6753 112.881 86.5786 112.938 86.4636C112.992 86.3947 113.025 86.3172 113.036 86.2312C113.071 86.15 113.083 86.0641 113.07 85.9772C113.083 85.8875 113.071 85.8025 113.034 85.7186Z" fill="white"/>
<path d="M115.226 93.9132C115.12 93.7959 114.989 93.7085 114.835 93.6527C114.626 93.57 114.411 93.5446 114.188 93.5727C114.166 93.5757 114.146 93.5788 114.124 93.5837C113.955 93.6004 113.803 93.6542 113.667 93.747C113.523 93.8145 113.403 93.9117 113.308 94.0406C113.257 94.1289 113.204 94.2152 113.152 94.3035C113.083 94.4506 113.055 94.6012 113.071 94.7592C113.057 94.8662 113.073 94.9705 113.115 95.0719C113.145 95.2266 113.214 95.3655 113.324 95.4886C113.399 95.5586 113.474 95.6306 113.55 95.7006C113.723 95.8262 113.918 95.9026 114.133 95.9318C114.155 95.9365 114.177 95.9431 114.199 95.9477C114.426 95.9755 114.645 95.9473 114.856 95.8612C114.948 95.809 115.042 95.7549 115.134 95.7027C115.305 95.5728 115.431 95.4125 115.517 95.2199C115.588 95.0729 115.614 94.9183 115.6 94.7604C115.614 94.5978 115.584 94.4411 115.51 94.2905C115.445 94.1384 115.352 94.012 115.226 93.9132Z" fill="white"/>
<path d="M118.267 89.4649C118.185 89.3889 118.106 89.313 118.025 89.237C117.84 89.1033 117.631 89.0206 117.4 88.9888C117.219 88.959 117.045 88.9735 116.876 89.0344C116.703 89.0643 116.548 89.1353 116.412 89.2473C116.27 89.3456 116.164 89.4702 116.092 89.6191C115.995 89.7556 115.937 89.9089 115.921 90.0773C115.92 90.1905 115.922 90.3038 115.922 90.4171C115.955 90.6429 116.046 90.8479 116.193 91.0282C116.274 91.1042 116.353 91.1801 116.434 91.2561C116.619 91.3898 116.828 91.4725 117.059 91.5042C117.24 91.5341 117.415 91.5176 117.583 91.4587C117.756 91.4287 117.911 91.3578 118.047 91.2458C118.189 91.1475 118.296 91.0229 118.368 90.8739C118.465 90.7374 118.522 90.5841 118.539 90.4158C118.539 90.3026 118.537 90.1892 118.538 90.076C118.502 89.8481 118.412 89.6451 118.267 89.4649Z" fill="white"/>
<path d="M122.709 89.0641C122.681 88.873 122.605 88.7012 122.481 88.5487C122.413 88.4848 122.345 88.4208 122.276 88.3567C122.118 88.2433 121.943 88.1733 121.748 88.1468C121.594 88.1218 121.446 88.1354 121.304 88.1858C121.157 88.2109 121.027 88.2713 120.911 88.3648C120.792 88.4487 120.702 88.5528 120.641 88.6791C120.559 88.795 120.51 88.9237 120.494 89.0652C120.495 89.1612 120.495 89.2572 120.496 89.3532C120.524 89.5443 120.6 89.7161 120.724 89.8686C120.792 89.9326 120.86 89.9966 120.929 90.0606C121.087 90.1741 121.262 90.244 121.457 90.2706C121.611 90.2955 121.759 90.2819 121.901 90.2316C122.048 90.2064 122.178 90.146 122.294 90.0525C122.413 89.9687 122.503 89.8646 122.564 89.7382C122.646 89.6223 122.695 89.4936 122.709 89.3521C122.71 89.2561 122.71 89.1601 122.709 89.0641Z" fill="white"/>
<path d="M115.959 84.4832C116.031 84.5511 116.104 84.6192 116.176 84.6871C116.341 84.8066 116.529 84.8809 116.734 84.9078C116.897 84.935 117.053 84.9198 117.203 84.866C117.358 84.8392 117.497 84.7753 117.619 84.6762C117.744 84.5869 117.84 84.4772 117.905 84.3434C117.994 84.2219 118.045 84.0837 118.059 83.9326C118.059 83.8308 118.059 83.7291 118.056 83.6273C118.026 83.4245 117.945 83.243 117.815 83.0806C117.743 83.0127 117.67 82.9446 117.598 82.8767C117.433 82.7572 117.246 82.683 117.041 82.656C116.877 82.6288 116.721 82.644 116.571 82.6979C116.416 82.7246 116.277 82.7885 116.155 82.8876C116.03 82.977 115.934 83.0866 115.869 83.2204C115.78 83.3419 115.729 83.4801 115.715 83.6312C115.715 83.733 115.716 83.8347 115.718 83.9366C115.748 84.1412 115.827 84.3227 115.959 84.4832Z" fill="white"/>
<path d="M119.22 81.0287C120.011 82.7113 120.21 84.4043 119.555 86.1592C119.415 86.5378 119.643 86.9207 120.056 86.992C121.628 87.2643 122.133 88.892 121.883 90.2263C121.623 91.6064 120.772 92.8893 119.893 93.9831C118.463 95.7606 116.586 97.1719 114.548 98.2566C110.134 100.603 105.03 101.572 100.098 102.35C87.8469 104.285 75.3596 104.246 63.0914 102.373C59.7951 101.871 56.5226 101.212 53.2561 100.556C49.9022 99.8803 46.5732 99.0773 43.4437 97.704C42.7076 97.3806 42.2377 98.4898 42.9678 98.8129C45.8566 100.095 48.929 100.913 52.0227 101.59C55.2573 102.297 58.516 102.948 61.7875 103.474C68.4238 104.542 75.1522 105.024 81.8766 104.976C88.737 104.929 95.5833 104.353 102.332 103.177C107.379 102.296 112.527 100.983 116.81 98.1767C119.109 96.6699 121.108 94.6623 122.323 92.2394C123.485 89.9258 123.373 86.4795 120.223 85.7889C120.391 86.0659 120.559 86.3448 120.724 86.6217C121.556 84.6162 121.403 82.3088 120.171 80.4867C119.822 79.9725 118.963 80.4815 119.22 81.0287Z" fill="#3D3D3D"/>
<path d="M61.2775 83.9157C61.4585 80.5977 58.198 77.6011 54.8563 77.3467C52.566 77.1721 50.403 78.133 48.1577 77.296C46.2793 76.5956 44.6633 75.3579 42.6685 74.9334C38.2542 73.9936 34.2288 76.806 31.24 79.5595C29.5881 81.081 28.0132 82.6842 26.1575 83.9849C24.4354 85.1909 22.5199 86.117 20.515 86.8094C15.7898 88.4398 10.7932 88.6202 5.82098 88.5213C4.92533 88.5029 4.70984 89.8155 5.63608 89.8715C13.4328 90.3571 22.0533 88.9962 28.1281 83.9881C31.3803 81.3079 34.1063 77.7209 38.336 76.3905C40.5673 75.6894 42.6375 75.9689 44.7018 76.9911C46.4637 77.8637 48.1394 78.8982 50.1852 78.9234C52.451 78.9512 54.5781 78.0944 56.7458 79.134C58.7405 80.0903 59.8136 81.8795 60.2371 83.9149C60.3474 84.4412 61.245 84.5134 61.2775 83.9157Z" fill="#3D3D3D"/>
<path d="M55.6723 82.0904C51.1155 84.5085 49.0134 89.3245 46.0797 93.2204C42.6742 97.7416 38.5528 102.04 33.7758 105.26C31.1419 107.036 28.2443 108.219 25.0032 108.427C24.4035 108.466 24.4194 109.373 25.0072 109.435C30.655 110.03 35.5517 105.811 39.2682 102.276C41.3266 100.319 43.252 98.2299 45.0391 96.0415C46.8052 93.8774 48.3212 91.556 49.9586 89.3025C51.6658 86.9518 53.5941 84.4118 56.1174 82.8098C56.5293 82.5508 56.1092 81.8573 55.6723 82.0904Z" fill="#3D3D3D"/>
<path d="M5.18434 89.6524C5.72649 90.8227 6.24878 91.8828 6.61408 93.1271C7.0217 94.5227 7.49012 95.8975 8.05368 97.2433C9.04507 99.6073 10.2678 101.938 11.8797 103.976C13.3025 105.776 15.0703 107.392 17.2123 108.371C19.8165 109.561 22.5625 109.534 25.3837 109.426C26.129 109.398 25.9667 108.29 25.2232 108.321C22.4216 108.442 19.4732 108.475 16.991 107.021C14.9806 105.843 13.4383 104.134 12.1707 102.251C10.746 100.132 9.66231 97.7742 8.79943 95.3978C8.37709 94.2339 8.05971 93.0452 7.6981 91.8625C7.38458 90.8371 6.98028 89.672 6.11912 88.9504C5.64577 88.5563 4.94374 89.1346 5.18434 89.6524Z" fill="#3D3D3D"/>
<path d="M6.01731 88.9974C5.15319 88.1951 3.75966 87.4246 2.55673 87.2776C1.90144 87.1991 1.53395 88.0319 2.06959 88.4187C2.57791 88.7872 3.24491 89.0331 3.8325 89.2626C4.42793 89.4962 5.02587 89.7164 5.65517 89.8476C6.19699 89.964 6.33244 89.2895 6.01731 88.9974Z" fill="#3D3D3D"/>
<path d="M7.38056 94.2953C6.59662 93.8607 5.69231 93.913 4.80706 93.9373C3.78159 93.9659 2.70844 94.0387 1.74662 94.396C1.17033 94.6104 1.26631 95.5681 1.92156 95.5947C2.83854 95.6312 3.74061 95.4789 4.65172 95.4057C5.51865 95.3367 6.49754 95.4292 7.28633 95.0442C7.55732 94.9143 7.70401 94.4725 7.38056 94.2953Z" fill="#3D3D3D"/>
<path d="M8.70555 98.3079C7.88898 98.4211 7.07789 98.548 6.27136 98.7134C5.52334 98.8657 4.68631 98.9378 4.01084 99.2886C3.47213 99.5678 3.50066 100.404 4.18578 100.487C5.7292 100.678 7.61923 99.9524 9.02646 99.4027C9.64986 99.1593 9.37527 98.216 8.70555 98.3079Z" fill="#3D3D3D"/>
<path d="M10.8117 102.478C9.12172 102.832 7.3174 103.035 6.08339 104.298C5.71925 104.67 6.18171 105.141 6.59608 105.135C8.23955 105.112 9.64498 104.133 11.1165 103.522C11.6857 103.284 11.4571 102.341 10.8117 102.478Z" fill="#3D3D3D"/>
<path d="M15.0329 106.257C14.3482 106.162 13.6165 106.518 12.9676 106.695C12.2336 106.898 11.4298 106.992 10.7322 107.293C10.1384 107.549 10.232 108.462 10.9116 108.534C11.7646 108.621 12.6788 108.36 13.4739 108.073C14.1858 107.816 15.0001 107.497 15.3849 106.844C15.5323 106.596 15.2877 106.291 15.0329 106.257Z" fill="#3D3D3D"/>
<path d="M18.1803 108.426C17.7795 108.868 17.4677 109.392 17.1782 109.907C16.9057 110.394 16.5291 110.938 16.8024 111.492C16.9195 111.729 17.1817 111.884 17.4573 111.847C18.1048 111.758 18.3442 111.193 18.6291 110.695C18.9226 110.18 19.2028 109.645 19.3663 109.076C19.5669 108.371 18.7189 107.832 18.1803 108.426Z" fill="#3D3D3D"/>
<path d="M24.8989 109.016C24.1569 109.911 23.1571 110.691 22.5771 111.695C22.3118 112.153 22.9482 112.732 23.4195 112.49C24.5354 111.92 25.2734 110.758 25.9077 109.749C26.3164 109.094 25.4145 108.392 24.8989 109.016Z" fill="#3D3D3D"/>
</svg>
